<?xml version="1.0" encoding="UTF-8"?>
<svg version="1.1" xmlns="http://www.w3.org/2000/svg" width="721" height="481">
<path d="M0 0 C237.93 0 475.86 0 721 0 C721 158.73 721 317.46 721 481 C483.07 481 245.14 481 0 481 C0 322.27 0 163.54 0 0 Z " fill="#172530" transform="translate(0,0)"/>
<path d="M0 0 C1.94817671 -0.00299904 3.89635283 -0.00640327 5.8445282 -0.01017761 C11.08994793 -0.01893931 16.3353513 -0.0213522 21.58077765 -0.0219934 C24.86361832 -0.02270759 28.14645493 -0.02484872 31.42929459 -0.02749062 C42.89671337 -0.03671331 54.3641206 -0.04082878 65.83154297 -0.04003906 C76.50114123 -0.03943691 87.17068917 -0.05002349 97.84027469 -0.06578273 C107.02620679 -0.07886471 116.21212243 -0.08422278 125.39806378 -0.08358365 C130.87382163 -0.08332916 136.34953453 -0.08615474 141.82528305 -0.0967617 C146.96851949 -0.10645545 152.11166804 -0.1065131 157.25490761 -0.09924507 C159.13783331 -0.0982013 161.02076454 -0.10054975 162.9036808 -0.10660553 C165.48128967 -0.11435692 168.05859727 -0.10966023 170.63619995 -0.10197449 C171.37405129 -0.10711805 172.11190264 -0.11226161 172.87211311 -0.11756104 C179.33205863 -0.07523384 187.05795206 0.30257687 192.04736328 4.83276367 C192.58103516 5.29038086 193.11470703 5.74799805 193.66455078 6.21948242 C198.99890666 13.03253281 198.62581009 20.14019363 198.60595703 28.45385742 C198.61119888 29.73454605 198.61644073 31.01523468 198.62184143 32.33473206 C198.63074105 35.03705754 198.62838592 37.73908699 198.6184082 40.44140625 C198.60692334 43.88564559 198.62713678 47.32885886 198.65632534 50.77296352 C198.67919995 54.08331377 198.67221582 57.39343028 198.66845703 60.70385742 C198.67969101 61.93116074 198.69092499 63.15846405 198.70249939 64.42295837 C198.64452738 71.57928097 197.74218281 75.96303561 194.17236328 82.14526367 C194.17236328 86.53034757 194.59621368 86.95083816 197.17236328 90.14526367 C198.16245725 93.11554558 198.31583271 95.12182192 198.34936523 98.22412109 C198.36861809 99.77669868 198.36861809 99.77669868 198.38825989 101.36064148 C198.39564682 102.47937149 198.40303375 103.5981015 198.41064453 104.75073242 C198.41871628 105.90390457 198.42678802 107.05707672 198.43510437 108.24519348 C198.44894397 110.68883766 198.45966668 113.13250116 198.4675293 115.57617188 C198.48471557 119.30075089 198.52860148 123.02443622 198.57275391 126.7487793 C198.58288333 129.12442382 198.59139865 131.50007588 198.59814453 133.87573242 C198.61565262 134.98434128 198.63316071 136.09295013 198.65119934 137.2351532 C198.6347849 143.13093202 198.20229066 147.38548641 195.03239441 152.43598938 C193.87271837 154.42188732 193.87271837 154.42188732 194.17236328 158.14526367 C195.12535105 159.51259395 196.1261092 160.84790861 197.17236328 162.14526367 C198.17465423 165.15213651 198.32220818 167.23026272 198.36523438 170.37597656 C198.3812973 171.44461441 198.39736023 172.51325226 198.41390991 173.61427307 C198.4585304 178.51644182 198.49945263 183.41847606 198.52246094 188.32080078 C198.5389828 190.89966886 198.56622232 193.47849187 198.60449219 196.05712891 C198.65952155 199.78596633 198.68117939 203.51372996 198.69580078 207.24291992 C198.71847015 208.38495377 198.74113953 209.52698761 198.76449585 210.70362854 C198.74495535 218.18173596 197.49585921 223.93135529 193.17236328 230.14526367 C187.96713269 235.06252243 182.36837964 235.29393486 175.5446167 235.29243469 C174.65269442 235.29611138 173.76077214 235.29978807 172.84182191 235.30357617 C169.84099399 235.31462495 166.84020069 235.31845887 163.83935547 235.32226562 C161.69266143 235.32852934 159.54596849 235.33517605 157.39927673 235.34217834 C151.55826534 235.35959572 145.71726213 235.37014198 139.87623119 235.37838387 C136.22829992 235.38353213 132.58037119 235.38960792 128.93244171 235.395895 C117.5227618 235.41494856 106.11308837 235.42917974 94.70339561 235.43750697 C81.52556174 235.44728305 68.34789568 235.47361169 55.17012095 235.51400787 C44.98914214 235.54414832 34.80821149 235.55897386 24.62718892 235.56228799 C18.5442786 235.56464068 12.46154753 235.57362996 6.378685 235.59874916 C0.65608677 235.62199873 -5.06621379 235.62627552 -10.78884697 235.61598778 C-12.88869401 235.61549156 -14.98855556 235.6218371 -17.08835793 235.63554382 C-19.95658142 235.65321829 -22.82373154 235.64617825 -25.69195557 235.63301086 C-26.52163699 235.64398011 -27.35131842 235.65494936 -28.20614171 235.666251 C-33.87628439 235.60346653 -37.14831893 234.38162876 -41.82763672 231.14526367 C-46.12889842 226.49525102 -48.07264442 222.89682898 -48.10229492 216.55395508 C-48.11659294 214.8716832 -48.11659294 214.8716832 -48.13117981 213.15542603 C-48.1302684 211.94808807 -48.12935699 210.74075012 -48.12841797 209.49682617 C-48.13270309 208.25154144 -48.13698822 207.00625671 -48.1414032 205.72323608 C-48.14714708 203.08870339 -48.14858168 200.45456238 -48.14331055 197.82006836 C-48.13867284 195.12360996 -48.14561323 192.42760162 -48.16381836 189.73120117 C-48.18832599 185.84043653 -48.19247313 181.95015842 -48.19091797 178.05932617 C-48.20012772 176.85603668 -48.20933746 175.65274719 -48.21882629 174.41299438 C-48.18656843 168.57220806 -48.15920939 164.17276673 -44.82763672 159.14526367 C-44.23982422 157.96963867 -44.23982422 157.96963867 -43.64013672 156.77026367 C-43.37201172 156.23401367 -43.10388672 155.69776367 -42.82763672 155.14526367 C-43.78669922 154.00057617 -43.78669922 154.00057617 -44.76513672 152.83276367 C-47.60599185 149.13104335 -47.95657872 146.5076582 -48.00463867 141.97460938 C-48.01747391 140.9195369 -48.03030914 139.86446442 -48.04353333 138.77742004 C-48.05092026 137.63681625 -48.05830719 136.49621246 -48.06591797 135.32104492 C-48.07398972 134.14567673 -48.08206146 132.97030853 -48.09037781 131.75932312 C-48.10421797 129.26860021 -48.11494042 126.77785833 -48.12280273 124.28710938 C-48.1399903 120.49010927 -48.183876 116.69398549 -48.22802734 112.8972168 C-48.23815662 110.47599923 -48.24667199 108.05477427 -48.25341797 105.63354492 C-48.27092606 104.50306229 -48.28843414 103.37257965 -48.30647278 102.20783997 C-48.28760478 95.30166723 -47.28456441 91.11352125 -43.82763672 85.14526367 C-43.57446733 81.92903937 -43.57446733 81.92903937 -45.79443359 78.7956543 C-48.77820915 73.00903776 -48.40109043 67.11975214 -48.35888672 60.73901367 C-48.36271362 59.45973999 -48.36654053 58.18046631 -48.3704834 56.86242676 C-48.37635071 54.16597981 -48.36790665 51.47006613 -48.34912109 48.77368164 C-48.32633175 45.33727307 -48.33947 41.90211449 -48.36341095 38.46575165 C-48.38143568 35.16090856 -48.36877315 31.85639214 -48.35888672 28.55151367 C-48.36698364 27.32734741 -48.37508057 26.10318115 -48.38342285 24.84191895 C-48.3066205 17.80775558 -47.65181899 13.10845498 -43.82763672 7.14526367 C-32.97656374 -3.16325566 -14.00964327 -0.00435204 0 0 Z " fill="#0B0C0D" transform="translate(417.82763671875,198.854736328125)"/>
<path d="M0 0 C1.11890625 0.3403125 2.2378125 0.680625 3.390625 1.03125 C27.19495688 8.79125246 46.07047747 25.22828418 58.08447266 47.16552734 C60.93555054 52.87832713 62.90915855 58.98050742 65 65 C65.36222656 65.85464844 65.72445312 66.70929688 66.09765625 67.58984375 C67.15659285 70.41825883 67.63016488 73.07248487 68.0625 76.0625 C68.32740234 77.89167969 68.32740234 77.89167969 68.59765625 79.7578125 C68.96036653 82.89627439 69.0283946 85.95875141 68.99609375 89.1171875 C68.52439225 98.41839874 68.52439225 98.41839874 72.07421875 106.55078125 C74.65443778 108.29305758 74.65443778 108.29305758 77.42578125 109.6484375 C83.99409101 113.0970493 87.80075671 121.15415037 90 128 C93.10827156 144.41167384 92.80375154 165.27254074 84.30078125 180.14453125 C74.48204839 194.15023128 61.91403419 199.64661679 46 204 C45.02675781 204.28617188 44.05351562 204.57234375 43.05078125 204.8671875 C23.0501416 210.40231459 2.61827681 210.50809708 -17.96044922 210.44604492 C-21.13226914 210.43692238 -24.30334816 210.44363749 -27.47509766 210.46655273 C-44.48525886 210.58865724 -61.25681034 210.2259222 -78.15625 208.1484375 C-78.83686241 208.06558943 -79.51747482 207.98274136 -80.21871185 207.89738274 C-98.70658912 205.58949507 -120.05892467 200.56981478 -133 186 C-141.64825454 174.79153957 -144.17785339 160.51109861 -144.1875 146.6875 C-144.19974609 145.77548828 -144.21199219 144.86347656 -144.22460938 143.92382812 C-144.24937571 132.40748349 -141.3121773 119.9547362 -133.0625 111.5 C-130.69336133 109.28166892 -128.69429739 107.84082638 -125.7890625 106.328125 C-122.92125983 104.37796035 -122.92125983 104.37796035 -122.4753418 102.16015625 C-122.28658726 99.84124739 -122.27248899 97.57618936 -122.3125 95.25 C-122.28181047 93.53368402 -122.24260977 91.81750113 -122.1953125 90.1015625 C-122.17243164 89.24336914 -122.14955078 88.38517578 -122.12597656 87.50097656 C-120.81850989 61.54421573 -108.27867697 37.43238257 -89.6875 19.6875 C-78.44820706 10.00612885 -67.09155599 4.40361125 -53 0 C-52.030625 -0.36222656 -51.06125 -0.72445312 -50.0625 -1.09765625 C-35.03497343 -5.52540961 -14.77703299 -4.95230295 0 0 Z " fill="#FDC120" transform="translate(250,202)"/>
<path d="M0 0 C0.87785363 -0.00779995 1.75570726 -0.01559991 2.66016251 -0.02363622 C5.60769273 -0.04361227 8.55393984 -0.02776969 11.5014801 -0.01205444 C13.61216487 -0.01882811 15.72284373 -0.02772982 17.83351135 -0.03860474 C23.57117739 -0.06143567 29.30839484 -0.05254551 35.04606891 -0.03670931 C41.04554646 -0.0240684 47.04498508 -0.03578554 53.04446411 -0.04364014 C63.12151499 -0.05274266 73.19838279 -0.04073361 83.27540588 -0.01693726 C94.93052712 0.01026764 106.58521097 0.00146664 118.24032158 -0.02606928 C128.24043571 -0.04875087 138.24041808 -0.05196481 148.24054962 -0.03887594 C154.21606717 -0.03107531 160.19137908 -0.03005665 166.16688347 -0.04655838 C171.78537108 -0.06098963 177.40329432 -0.05100544 183.02172089 -0.0220871 C185.08530044 -0.01546885 187.1489274 -0.0173865 189.21248817 -0.02840042 C192.02690541 -0.04203825 194.83950746 -0.02496143 197.65380859 0 C198.47306979 -0.01115361 199.29233099 -0.02230722 200.13641828 -0.03379881 C204.38477247 0.03943204 205.94206893 0.28063156 209.39717102 3.01099586 C211.67202884 6.0056653 212.01767081 7.36543349 212.02149963 11.08023071 C212.03403275 12.14483521 212.04656586 13.2094397 212.05947876 14.30630493 C212.04622055 15.44599731 212.03296234 16.5856897 212.01930237 17.75991821 C212.02171432 18.93957153 212.02412628 20.11922485 212.02661133 21.33462524 C212.02563284 23.82603318 212.01223921 26.31746284 211.98731995 28.80874634 C211.95301822 32.62134696 211.96666194 36.43162925 211.98609924 40.24429321 C211.97920068 42.66617808 211.96952822 45.08805696 211.95680237 47.50991821 C211.96176224 48.6496106 211.96672211 49.78930298 211.97183228 50.96353149 C211.95599594 52.02813599 211.94015961 53.09274048 211.92384338 54.18960571 C211.91454552 55.58928589 211.91454552 55.58928589 211.90505981 57.01724243 C211.19596991 60.62380626 210.06650039 62.10076209 207.39039612 64.63491821 C204.32143757 65.13368548 201.80559515 65.30708655 198.73609924 65.2631073 C197.41213512 65.27374888 197.41213512 65.27374888 196.06142426 65.28460544 C193.09772465 65.30223662 190.13532764 65.28405458 187.17164612 65.26602173 C185.04948833 65.27115858 182.92733481 65.27843808 180.80519104 65.28770447 C175.03658831 65.30625631 169.26844636 65.2932558 163.49986267 65.27361417 C157.46922751 65.2572577 151.43862222 65.26603638 145.40797424 65.27113342 C135.27964395 65.27565773 125.15149813 65.25976353 115.02320862 65.23184204 C103.30562968 65.19978875 91.58838351 65.19980486 79.87078094 65.21705681 C68.60896625 65.23290845 57.34727381 65.22619708 46.08546448 65.2091198 C41.28806819 65.20223868 36.49076958 65.20329265 31.69337463 65.21066475 C26.04622329 65.21831343 20.39945166 65.20624754 14.75236511 65.17881584 C12.67707954 65.17191607 10.60175862 65.17185099 8.526474 65.17903137 C5.69878673 65.18768924 2.8722812 65.17183224 0.04469299 65.14958191 C-0.78137199 65.15782268 -1.60743698 65.16606344 -2.45853424 65.17455393 C-6.07254295 65.12187433 -8.18094962 64.9550156 -11.11875153 62.7612133 C-13.00320012 60.07356031 -13.11626839 58.4799121 -13.12718201 55.21133423 C-13.13979065 54.12663345 -13.15239929 53.04193268 -13.16539001 51.92436218 C-13.15729309 50.75763474 -13.14919617 49.59090729 -13.14085388 48.38882446 C-13.14468079 47.18556015 -13.14850769 45.98229584 -13.15245056 44.74256897 C-13.15517234 42.19813195 -13.14779275 39.65366708 -13.13108826 37.10928345 C-13.10970319 33.21549996 -13.1308736 29.32356572 -13.15647888 25.42984009 C-13.15383529 22.95783081 -13.14870967 20.48582268 -13.14085388 18.01382446 C-13.14895081 16.84912125 -13.15704773 15.68441803 -13.16539001 14.48442078 C-13.15278137 13.39656784 -13.14017273 12.3087149 -13.12718201 11.18789673 C-13.12399963 10.23399551 -13.12081726 9.2800943 -13.11753845 8.29728699 C-11.66755349 0.69710593 -6.85702275 -0.09309957 0 0 Z " fill="#D0D6E4" transform="translate(393.60960388183594,210.36508178710938)"/>
<path d="M0 0 C0.86066499 -0.00382555 1.72132999 -0.00765109 2.60807574 -0.01159257 C5.503071 -0.02194288 8.39786869 -0.01792656 11.2928772 -0.01396179 C13.36400029 -0.01830717 15.43512177 -0.02348973 17.50624084 -0.02944946 C23.14053478 -0.04287015 28.77476177 -0.04341467 34.40906858 -0.04088616 C39.10850907 -0.03981843 43.80793589 -0.04469481 48.50737345 -0.04949158 C59.59262332 -0.06059761 70.6778393 -0.06101817 81.76309204 -0.05497742 C93.20734923 -0.048937 104.65148349 -0.06124791 116.0957197 -0.08254749 C125.91319482 -0.10014905 135.73063077 -0.10616709 145.54812109 -0.10290974 C151.41518533 -0.10109427 157.2821619 -0.10375925 163.14921188 -0.11762428 C168.66658733 -0.1301743 174.18377086 -0.12828528 179.70114326 -0.11521339 C181.72764335 -0.11284181 183.75415681 -0.11560302 185.78064156 -0.12383652 C188.54433376 -0.13425657 191.30737641 -0.12624145 194.07104492 -0.11352539 C195.27761421 -0.12458682 195.27761421 -0.12458682 196.50855863 -0.13587171 C201.07038801 -0.09163143 204.05986095 0.38947743 207.6625061 3.26069641 C209.81638614 6.49151646 209.91734376 7.38416424 209.93716431 11.11177063 C209.94669632 12.09644318 209.95622833 13.08111572 209.96604919 14.09562683 C209.96468208 15.68940659 209.96468208 15.68940659 209.96328735 17.31538391 C209.96757248 18.40908295 209.9718576 19.50278198 209.97627258 20.62962341 C209.98201888 22.94462898 209.98251395 25.25965261 209.97817993 27.57466125 C209.97502468 31.11485185 209.99845991 34.65420321 210.02383423 38.19429016 C210.02610766 40.44298702 210.02681051 42.69168613 210.02578735 44.94038391 C210.0349971 45.99885529 210.04420685 47.05732666 210.05369568 48.14787292 C209.99540357 57.42192581 209.99540357 57.42192581 206.6625061 61.26069641 C202.83284371 63.81380467 199.72592374 63.54503786 195.28704834 63.52812195 C194.42229979 63.53265306 193.55755125 63.53718417 192.6665982 63.54185259 C189.75779112 63.55455186 186.84916994 63.55287267 183.94033813 63.55122375 C181.85936236 63.55720555 179.77838882 63.56401029 177.69741821 63.57157898 C172.03627185 63.5892816 166.3751859 63.59393615 160.71401453 63.59521055 C155.99220509 63.59710711 151.2704098 63.60446184 146.5486058 63.61155474 C135.41062129 63.62785248 124.27266913 63.63272243 113.13467407 63.63130188 C101.63585493 63.63010006 90.13722336 63.65120687 78.6384517 63.68278921 C68.77426681 63.70891901 58.91014331 63.71967056 49.04592407 63.71839106 C43.15088112 63.71788046 37.2560048 63.72361775 31.36099625 63.74474716 C25.8173159 63.76407402 20.27396207 63.76429202 14.73027039 63.7497139 C12.69409078 63.7476178 10.65789103 63.7523741 8.62174606 63.76443481 C5.84475422 63.77982003 3.0688977 63.7706238 0.29193115 63.75517273 C-0.51633932 63.76545986 -1.32460979 63.77574698 -2.15737331 63.78634584 C-5.9287859 63.73988373 -8.10597733 63.40892361 -11.31433296 61.35479164 C-14.26012422 58.30571763 -14.46617648 56.65176853 -14.49862671 52.52314758 C-14.50823425 51.53839951 -14.5178418 50.55365143 -14.52774048 49.5390625 C-14.53199036 48.47138138 -14.53624023 47.40370026 -14.5406189 46.30366516 C-14.54631897 45.20855118 -14.55201904 44.11343719 -14.55789185 42.98513794 C-14.56735103 40.66415882 -14.57387946 38.34316622 -14.57772827 36.02217102 C-14.58742562 32.47318521 -14.61843761 28.92478038 -14.6499939 25.37593079 C-14.65652463 23.12267902 -14.66177482 20.86942311 -14.6656189 18.61616516 C-14.6779657 17.55455673 -14.6903125 16.4929483 -14.70303345 15.39916992 C-14.6749487 6.09525015 -14.6749487 6.09525015 -11.3374939 2.26069641 C-7.51529616 -0.28743541 -4.42936119 -0.02069627 0 0 Z " fill="#79A8D3" transform="translate(395.3374938964844,286.7393035888672)"/>
<path d="M0 0 C1.33599149 -0.00935994 1.33599149 -0.00935994 2.6989727 -0.01890898 C5.69557729 -0.03491564 8.69137708 -0.02220477 11.68798828 -0.00964355 C13.83132402 -0.01506126 15.97465604 -0.02218193 18.11798096 -0.03088379 C23.9484897 -0.04916179 29.77871619 -0.04203107 35.60923004 -0.02936745 C41.7017342 -0.01926297 47.79421367 -0.02862601 53.88671875 -0.03491211 C64.11934767 -0.04219596 74.35186124 -0.03258142 84.58447266 -0.0135498 C96.42644177 0.00822026 108.26813545 0.00116942 120.11009789 -0.02085543 C130.26470999 -0.03898837 140.41923902 -0.04157805 150.57386208 -0.03110075 C156.64431907 -0.02485425 162.71464647 -0.02406195 168.78509521 -0.0372467 C174.49130949 -0.04877392 180.19716754 -0.04083664 185.9033432 -0.01766968 C188.00162921 -0.01236584 190.09994503 -0.01392478 192.1982193 -0.02272034 C195.05475594 -0.03359334 197.91013914 -0.02001235 200.76660156 0 C202.02276433 -0.01338433 202.02276433 -0.01338433 203.30430412 -0.02703905 C208.89210926 0.0493016 208.89210926 0.0493016 211.39719391 2.38833714 C212.59274602 4.95812877 212.77670543 6.82206751 212.80322266 9.65612793 C212.81913452 10.68076645 212.83504639 11.70540497 212.85144043 12.76109314 C212.85164185 13.86219925 212.85184326 14.96330536 212.85205078 16.09777832 C212.85966431 17.2344545 212.86727783 18.37113068 212.87512207 19.54225159 C212.88592455 21.9454224 212.8887756 24.34864017 212.88427734 26.75183105 C212.88330526 30.42849015 212.92492405 34.10306131 212.96923828 37.77941895 C212.9744454 40.11470105 212.97713347 42.44999041 212.97705078 44.78527832 C212.99344604 45.8843602 213.00984131 46.98344208 213.0267334 48.11582947 C213.01742798 49.14362015 213.00812256 50.17141083 212.99853516 51.23034668 C213.0005896 52.13095322 213.00264404 53.03155975 213.00476074 53.9594574 C212.08409972 57.73489547 210.4151273 59.10803484 207.38330078 61.50793457 C204.46840066 62.22951353 201.63798815 62.18357668 198.64671326 62.14285278 C197.32759283 62.15455271 197.32759283 62.15455271 195.9818235 62.16648901 C193.03506361 62.1864328 190.08959174 62.17063513 187.14282227 62.15490723 C185.03036749 62.16168222 182.91791862 62.17058469 180.80548096 62.18145752 C175.0679411 62.20426979 169.33085029 62.19540669 163.59330249 62.17956209 C157.59336293 62.16691488 151.59346216 62.17863978 145.59352112 62.18649292 C135.51825039 62.19559219 125.44316285 62.18359343 115.36791992 62.15979004 C103.71218997 62.13257102 92.0568972 62.14139771 80.40117782 62.16892207 C70.4002099 62.19159531 60.39937376 62.19482214 50.39838845 62.18172872 C44.42235874 62.17392539 38.44653469 62.17291713 32.47051811 62.18941116 C26.85366166 62.20383081 21.23737022 62.19387962 15.62057495 62.16493988 C13.55657452 62.15831603 11.49252672 62.16024878 9.428545 62.1712532 C6.61601816 62.18486868 3.80531453 62.16784176 0.99290466 62.14285278 C-0.23933322 62.1595832 -0.23933322 62.1595832 -1.49646479 62.1766516 C-5.43836872 62.10846811 -7.2148822 61.88949506 -10.12347412 59.12753201 C-11.78432515 56.21386473 -12.11779371 54.56081489 -12.1184082 51.23034668 C-12.12778915 50.202556 -12.1371701 49.17476532 -12.14683533 48.11582947 C-12.13560135 47.01674759 -12.12436737 45.91766571 -12.11279297 44.78527832 C-12.1142482 43.64764542 -12.11570343 42.51001251 -12.11720276 41.33790588 C-12.11554488 38.93646683 -12.10399622 36.53501702 -12.08325195 34.13366699 C-12.05427638 30.45523043 -12.0626506 26.77823324 -12.07568359 23.09973145 C-12.06944675 20.76574006 -12.06105624 18.43175322 -12.05029297 16.09777832 C-12.05322861 14.99667221 -12.05616425 13.8955661 -12.05918884 12.76109314 C-12.04650467 11.73645462 -12.0338205 10.7118161 -12.02075195 9.65612793 C-12.01534897 8.75631699 -12.00994598 7.85650604 -12.00437927 6.9294281 C-10.8639872 -0.19358997 -6.25300486 -0.06662535 0 0 Z " fill="#CED3E3" transform="translate(392.61669921875,361.4920654296875)"/>
<path d="M0 0 C19.44164541 16.86857092 33.56544849 42.27097468 35.80078125 68.05078125 C35.90350342 69.15800537 36.00622559 70.26522949 36.11206055 71.40600586 C36.30134125 73.60430468 36.45308609 75.80625542 36.56176758 78.01000977 C37.06590556 84.06871057 37.94847092 87.22739828 42.62109375 91.2890625 C43.40162109 91.86615967 44.18214844 92.44325684 44.98632812 93.0378418 C48.89561242 96.19893156 50.99306476 100.4030802 53.21484375 104.83984375 C53.60542969 105.60941406 53.99601563 106.37898437 54.3984375 107.171875 C62.31020077 124.64730815 60.85238031 148.37623245 54.40234375 166.06640625 C47.17030315 182.95702739 34.85605435 192.60254345 18.125 199.4296875 C7.28126447 203.47212542 -3.98116718 205.91181566 -15.41015625 207.58984375 C-16.19527588 207.70545654 -16.98039551 207.82106934 -17.78930664 207.94018555 C-34.05300621 210.11010676 -50.46548712 210.02623289 -66.83984375 210.02514648 C-70.51444113 210.02733143 -74.18873668 210.04555014 -77.86328125 210.06445312 C-111.39091612 210.14426505 -156.19233425 209.13215537 -181.9296875 183.9921875 C-193.89955817 170.10713753 -197.18961309 153.8438815 -197.09765625 135.96484375 C-197.0920166 134.81806152 -197.08637695 133.6712793 -197.08056641 132.48974609 C-196.86514895 117.50223665 -193.97716109 103.78894136 -183.09765625 92.71484375 C-180.72320898 90.47572767 -178.50808339 88.65512851 -175.78515625 86.83984375 C-175.49540694 84.30529975 -175.37406823 81.9418703 -175.34765625 79.40234375 C-174.43326414 54.39465813 -165.29882946 29.75120775 -148.78515625 10.83984375 C-148.26824219 10.17984375 -147.75132812 9.51984375 -147.21875 8.83984375 C-131.52175635 -10.67321101 -105.85650384 -21.97560465 -81.4296875 -24.87890625 C-51.38170889 -27.19772132 -23.31981593 -19.48418857 0 0 Z M-138.31054688 14.24023438 C-151.28390184 28.31331745 -158.42255268 44.40682013 -162.78515625 62.83984375 C-163.02105469 63.8040625 -163.25695312 64.76828125 -163.5 65.76171875 C-164.41125209 70.04526873 -164.81601802 74.10992177 -164.8046875 78.484375 C-164.85387391 91.56669827 -164.85387391 91.56669827 -167.63671875 95.37109375 C-169.94132132 97.06678795 -172.28835994 98.44811869 -174.78515625 99.83984375 C-181.91531663 106.04895892 -185.69422029 115.60028413 -186.78515625 124.83984375 C-187.7964232 140.66875766 -187.53226347 158.49883107 -177.78515625 171.83984375 C-177.28242188 172.53335938 -176.7796875 173.226875 -176.26171875 173.94140625 C-169.63379034 182.24965454 -160.56991355 186.30370951 -150.78515625 189.83984375 C-149.70665909 190.23675415 -148.62816193 190.63366455 -147.51698303 191.04260254 C-138.61430291 194.18154919 -130.07394114 196.0637432 -120.65625 197.12109375 C-119.95992399 197.20233994 -119.26359798 197.28358612 -118.54617119 197.36729431 C-102.56280964 199.20486779 -86.6078358 199.455791 -70.53491211 199.36132812 C-66.61024896 199.33839963 -62.68666311 199.35220945 -58.76203537 199.37509346 C-27.54542892 199.52926847 12.16945357 199.15716357 36.09375 176.11328125 C46.43649395 165.02768828 48.3929845 150.13713472 48.40234375 135.52734375 C48.41458984 134.53283203 48.42683594 133.53832031 48.43945312 132.51367188 C48.46225401 120.93842279 46.23386446 109.51848317 38.21875 100.625 C35.4336161 98.13470069 32.97958243 96.15545019 29.5078125 94.72265625 C27.21484375 92.83984375 27.21484375 92.83984375 26.7722168 91.01879883 C26.59828572 88.59578661 26.57434212 86.206541 26.58984375 83.77734375 C26.25887978 69.29898357 24.67891886 55.96999632 18.21484375 42.83984375 C17.76109375 41.84597656 17.30734375 40.85210937 16.83984375 39.828125 C5.18507498 15.09341192 -14.5926649 -0.83279156 -39.59765625 -10.53515625 C-49.03461375 -13.66011367 -58.26073457 -14.49910735 -68.16015625 -14.41015625 C-69.81204956 -14.39891724 -69.81204956 -14.39891724 -71.49731445 -14.38745117 C-97.30561228 -14.04563206 -120.13098451 -4.32357238 -138.31054688 14.24023438 Z " fill="#0B0C0A" transform="translate(292.78515625,213.16015625)"/>
<path d="M0 0 C1.05556595 -0.00990463 2.1111319 -0.01980927 3.19868469 -0.03001404 C4.92790665 -0.02326157 4.92790665 -0.02326157 6.69206238 -0.01637268 C7.91035233 -0.02323593 9.12864227 -0.03009918 10.3838501 -0.03717041 C13.72300804 -0.05233862 17.06160785 -0.0539312 20.40075898 -0.04822803 C23.19134271 -0.0451363 25.98187598 -0.05122873 28.77245253 -0.05726677 C35.3593053 -0.07131506 41.9460284 -0.06974948 48.53288269 -0.05836487 C55.31874895 -0.04689512 62.10421946 -0.060939 68.89003354 -0.08776134 C74.72289996 -0.10995024 80.55564246 -0.11654823 86.38854808 -0.11068493 C89.8691627 -0.10732028 93.34952394 -0.10969669 96.83010292 -0.12693596 C100.71523538 -0.14533853 104.59988534 -0.1311851 108.48503113 -0.11402893 C109.63177307 -0.1236969 110.77851501 -0.13336487 111.96000671 -0.14332581 C118.46762603 -0.08317986 122.50078186 0.48857655 127.78263855 4.38768005 C131.27078731 8.05470824 132.07543756 10.96164356 132.28263855 15.88768005 C132.07543756 20.81371655 131.27078731 23.72065187 127.78263855 27.38768005 C121.52238772 32.00904095 116.10493592 31.95363104 108.48503113 31.88938904 C107.26148422 31.89479202 106.03793732 31.90019501 104.77731323 31.90576172 C101.43836048 31.91609304 98.10040602 31.90858786 94.7615416 31.8920505 C91.26138338 31.87815195 87.76125378 31.88466518 84.26107788 31.88818359 C78.38772773 31.89088087 72.51458252 31.87744823 66.64128113 31.85423279 C59.85363534 31.82758875 53.06633127 31.82588944 46.27865106 31.83762115 C39.74055986 31.84840127 33.20259212 31.84221248 26.66451073 31.82806587 C23.88507349 31.82231179 21.10572677 31.82238407 18.32628822 31.82713127 C14.4480814 31.8327913 10.57021649 31.81358041 6.69206238 31.79173279 C5.53924774 31.79623444 4.38643311 31.80073608 3.19868469 31.80537415 C1.61533577 31.7905172 1.61533577 31.7905172 0 31.77536011 C-0.91638843 31.77293021 -1.83277685 31.77050032 -2.77693462 31.76799679 C-5.71912893 31.30948448 -7.10284789 30.464601 -9.21736145 28.38768005 C-9.59236145 25.32518005 -9.59236145 25.32518005 -9.21736145 22.38768005 C-6.67274011 19.84305872 -5.77382106 20.13394893 -2.24482727 20.12266541 C-0.66738487 20.11025566 -0.66738487 20.11025566 0.94192505 20.09759521 C2.67968956 20.09906807 2.67968956 20.09906807 4.45256042 20.10057068 C5.66883621 20.09373764 6.885112 20.0869046 8.13824463 20.0798645 C10.78640256 20.06624562 13.43429537 20.05622223 16.0824585 20.05215454 C20.2670601 20.04545286 24.45149947 20.02371315 28.6360321 19.99961853 C38.27416283 19.94643521 47.91234356 19.91309392 57.55056 19.87985992 C66.38265414 19.84920233 75.21467889 19.81440418 84.04668283 19.76354933 C88.20919194 19.7401553 92.37158839 19.7264485 96.5341568 19.72005463 C99.72704967 19.71274049 102.91986847 19.69272685 106.11271667 19.67478943 C107.85048119 19.67626228 107.85048119 19.67626228 109.62335205 19.67776489 C111.20079445 19.66535515 111.20079445 19.66535515 112.81010437 19.6526947 C114.18613201 19.64829502 114.18613201 19.64829502 115.58995819 19.64380646 C117.99069275 19.59315411 117.99069275 19.59315411 119.78263855 17.38768005 C119.46412085 15.27947209 119.46412085 15.27947209 118.78263855 13.38768005 C118.14118739 13.3852917 117.49973623 13.38290335 116.83884716 13.38044262 C101.2404958 13.32134084 85.64232379 13.245822 70.04414654 13.15196514 C62.5010181 13.10697397 54.95793722 13.06756709 47.41471863 13.04124451 C40.84106386 13.01829119 34.26755921 12.98492332 27.69402343 12.93897849 C24.21243254 12.91500998 20.73099064 12.89630513 17.24931908 12.89006615 C13.36532115 12.88291129 9.48169723 12.85250797 5.5978241 12.8200531 C4.43976761 12.82148819 3.28171112 12.82292328 2.08856201 12.82440186 C0.50472214 12.80559464 0.50472214 12.80559464 -1.1111145 12.78640747 C-2.03014211 12.78179851 -2.94916971 12.77718954 -3.89604664 12.77244091 C-6.67891336 12.31117724 -7.5731171 11.65028517 -9.21736145 9.38768005 C-9.65486145 6.38768005 -9.65486145 6.38768005 -9.21736145 3.38768005 C-6.24916521 0.48576286 -4.08115174 0.01082158 0 0 Z " fill="#0D1011" transform="translate(459.2173614501953,303.61231994628906)"/>
<path d="M0 0 C1.07246475 -0.00990463 2.1449295 -0.01980927 3.24989319 -0.03001404 C4.42657562 -0.02551239 5.60325806 -0.02101074 6.81559753 -0.01637268 C8.05485489 -0.02323593 9.29411224 -0.03009918 10.57092285 -0.03717041 C13.9720506 -0.05235495 17.37263115 -0.0539267 20.77375245 -0.04822803 C23.61408655 -0.04513974 26.45437091 -0.05122491 29.29469794 -0.05726677 C35.9979955 -0.07132294 42.70116566 -0.06974296 49.40446472 -0.05836487 C56.31472747 -0.04689447 63.22460162 -0.06093832 70.13481313 -0.08776134 C76.07040252 -0.10993673 82.00587011 -0.11655126 87.94149798 -0.11068493 C91.48525107 -0.10731704 95.02875534 -0.10971831 98.57247353 -0.12693596 C102.52736685 -0.1453115 106.48178493 -0.13119892 110.43669128 -0.11402893 C111.60730103 -0.1236969 112.77791077 -0.13336487 113.98399353 -0.14332581 C120.24089992 -0.08640112 124.09050163 0.13951138 128.82023621 4.38768005 C132.79974737 8.78608713 133.39350022 12.32760774 133.14445496 18.0556488 C132.45099086 23.04357728 129.50480302 26.16368409 125.82023621 29.38768005 C122.80065792 30.39420615 120.77755277 30.51810139 117.62028503 30.52812195 C116.00508469 30.53668716 116.00508469 30.53668716 114.35725403 30.54542542 C113.17585846 30.54654327 111.99446289 30.54766113 110.77726746 30.54881287 C109.53319122 30.55377777 108.28911499 30.55874268 107.00733948 30.56385803 C103.59418572 30.57596654 100.18109321 30.58342428 96.76792526 30.58786869 C94.63632187 30.59080012 92.50472385 30.59490498 90.37312317 30.59937286 C83.70586898 30.6130423 77.03862706 30.62271272 70.37135983 30.62657475 C62.67053376 30.63105994 54.96988479 30.64863135 47.26911259 30.67757535 C41.31830765 30.69916739 35.36755265 30.70927764 29.41670895 30.71061587 C25.86133961 30.71166532 22.30613688 30.71760295 18.75080872 30.73543549 C14.78821546 30.75492512 10.82584511 30.75063712 6.86320496 30.74412537 C5.0911116 30.75794754 5.0911116 30.75794754 3.28321838 30.77204895 C1.66801804 30.76369522 1.66801804 30.76369522 0.02018738 30.75517273 C-0.9170668 30.75663929 -1.85432098 30.75810585 -2.81997681 30.75961685 C-5.17976379 30.38768005 -5.17976379 30.38768005 -6.98522949 29.05611801 C-8.81370972 26.50223086 -8.50367423 24.43243811 -8.17976379 21.38768005 C-5.62782185 18.83573811 -4.69813682 19.13033437 -1.1558075 19.10920715 C-0.09287476 19.09804367 0.97005798 19.08688019 2.06520081 19.07537842 C3.23620331 19.07321823 4.40720581 19.07105804 5.61369324 19.0688324 C6.84293518 19.05878677 8.07217712 19.04874115 9.33866882 19.03839111 C12.71451271 19.01274624 16.09018751 18.99592343 19.46608973 18.98296309 C22.99221776 18.96735978 26.51825993 18.94056071 30.04432678 18.91493225 C36.72367939 18.86809469 43.40304807 18.83137476 50.08248127 18.79825938 C57.68582165 18.76007306 65.28907591 18.71065382 72.89234376 18.66027522 C88.53491237 18.55688139 104.17752923 18.46764533 119.82023621 18.38768005 C120.20242388 16.73153348 120.53418722 15.06310981 120.82023621 13.38768005 C119.16379796 11.73124181 117.21001909 12.25241522 114.92999268 12.24291992 C113.34199104 12.23257217 113.34199104 12.23257217 111.72190857 12.22201538 C109.96472504 12.21809532 109.96472504 12.21809532 108.17204285 12.21409607 C106.94615952 12.20740906 105.72027618 12.20072205 104.45724487 12.1938324 C101.78513296 12.17974318 99.11307634 12.16742333 96.44095039 12.1578846 C92.21865827 12.14246929 87.99644193 12.11852103 83.77420044 12.09298706 C71.76591268 12.02168345 59.75758148 11.961958 47.74919128 11.91087341 C41.12137449 11.88260259 34.49363305 11.84723939 27.86589521 11.80421966 C23.66576604 11.77738993 19.46572217 11.75952015 15.26552403 11.74818242 C12.04290682 11.73694165 8.82038198 11.71281191 5.5978241 11.69065857 C4.42839264 11.69006943 3.25896118 11.68948029 2.05409241 11.68887329 C0.46186104 11.67429581 0.46186104 11.67429581 -1.16253662 11.65942383 C-2.08856154 11.65519189 -3.01458647 11.65095995 -3.96867275 11.64659977 C-6.17976379 11.38768005 -6.17976379 11.38768005 -8.17976379 9.38768005 C-8.73561797 4.16265076 -8.73561797 4.16265076 -6.98396778 1.72050381 C-4.55698963 -0.07238333 -3.00442488 0.00782169 0 0 Z " fill="#08090A" transform="translate(458.1797637939453,378.61231994628906)"/>
<path d="M0 0 C1.07390991 -0.00845947 2.14781982 -0.01691895 3.25427246 -0.02563477 C4.43252594 -0.01956207 5.61077942 -0.01348938 6.82473755 -0.00723267 C8.68603302 -0.0151181 8.68603302 -0.0151181 10.58493042 -0.02316284 C13.99013058 -0.03411728 17.3947851 -0.03153083 20.79995489 -0.02202559 C24.36373476 -0.01443384 27.9274912 -0.02147356 31.49127197 -0.02618408 C37.47844633 -0.03164448 43.46550973 -0.02444411 49.45266724 -0.01016235 C56.37084643 0.0061499 63.28876019 0.00088732 70.2069329 -0.01564157 C76.14759746 -0.02926619 82.08818221 -0.0311709 88.02885735 -0.02332556 C91.57644061 -0.01865246 95.12389924 -0.01801381 98.67147446 -0.02793503 C102.6289166 -0.03822884 106.58606292 -0.0239512 110.54348755 -0.00723267 C112.30479507 -0.01634171 112.30479507 -0.01634171 114.10168457 -0.02563477 C115.18123413 -0.01717529 116.26078369 -0.00871582 117.37304688 0 C118.77616277 0.00169662 118.77616277 0.00169662 120.20762444 0.00342751 C124.61215537 0.64152746 127.17506207 2.653833 130.06350708 5.94345093 C133.4203478 10.61905051 133.45582573 14.73028282 132.81350708 20.38095093 C130.35798563 25.03797436 127.86346787 28.69763066 122.81350708 30.38095093 C121.08224099 30.47737337 119.3474963 30.51588963 117.61355591 30.52139282 C115.99835556 30.52995804 115.99835556 30.52995804 114.3505249 30.53869629 C113.16912933 30.53981415 111.98773376 30.54093201 110.77053833 30.54208374 C109.5264621 30.54704865 108.28238586 30.55201355 107.00061035 30.55712891 C103.58745659 30.56923741 100.17436408 30.57669515 96.76119614 30.58113956 C94.62959275 30.584071 92.49799473 30.58817585 90.36639404 30.59264374 C83.69913985 30.60631317 77.03189793 30.6159836 70.3646307 30.61984563 C62.66380463 30.62433082 54.96315566 30.64190222 47.26238346 30.67084622 C41.31157853 30.69243826 35.36082353 30.70254851 29.40997982 30.70388675 C25.85461048 30.70493619 22.29940775 30.71087382 18.74407959 30.72870636 C14.78148633 30.74819599 10.81911599 30.74390799 6.85647583 30.73739624 C5.08438248 30.75121841 5.08438248 30.75121841 3.27648926 30.76531982 C1.66128891 30.75696609 1.66128891 30.75696609 0.01345825 30.7484436 C-0.92379593 30.74991016 -1.86105011 30.75137672 -2.82670593 30.75288773 C-5.18649292 30.38095093 -5.18649292 30.38095093 -6.99195862 29.04938889 C-8.82043884 26.49550173 -8.51040335 24.42570898 -8.18649292 21.38095093 C-5.63455098 18.82900898 -4.70486595 19.12360524 -1.16253662 19.10247803 C-0.09960388 19.09131454 0.96332886 19.08015106 2.05847168 19.06864929 C3.22947418 19.06648911 4.40047668 19.06432892 5.60696411 19.06210327 C6.83620605 19.05205765 8.065448 19.04201202 9.3319397 19.03166199 C12.70778358 19.00601711 16.08345838 18.9891943 19.4593606 18.97623396 C22.98548863 18.96063065 26.5115308 18.93383158 30.03759766 18.90820312 C36.71695027 18.86136556 43.39631894 18.82464564 50.07575214 18.79153025 C57.67909252 18.75334393 65.28234678 18.7039247 72.88561463 18.65354609 C88.52818325 18.55015226 104.1708001 18.4609162 119.81350708 18.38095093 C120.19569475 16.72480435 120.5274581 15.05638068 120.81350708 13.38095093 C119.15706883 11.72451268 117.20328996 12.2456861 114.92326355 12.2361908 C113.33526192 12.22584305 113.33526192 12.22584305 111.71517944 12.21528625 C109.95799591 12.2113662 109.95799591 12.2113662 108.16531372 12.20736694 C106.93943039 12.20067993 105.71354706 12.19399292 104.45051575 12.18710327 C101.77840383 12.17301406 99.10634722 12.16069421 96.43422127 12.15115547 C92.21192914 12.13574017 87.9897128 12.1117919 83.76747131 12.08625793 C71.75918355 12.01495433 59.75085236 11.95522888 47.74246216 11.90414429 C41.11464536 11.87587347 34.48690393 11.84051026 27.85916609 11.79749054 C23.65903691 11.7706608 19.45899304 11.75279103 15.2587949 11.74145329 C12.03617769 11.73021253 8.81365286 11.70608279 5.59109497 11.68392944 C4.42166351 11.6833403 3.25223206 11.68275116 2.04736328 11.68214417 C0.45513191 11.66756668 0.45513191 11.66756668 -1.16926575 11.6526947 C-2.09529067 11.64846276 -3.02131559 11.64423082 -3.97540188 11.63987064 C-6.18649292 11.38095093 -6.18649292 11.38095093 -8.18649292 9.38095093 C-8.74230373 4.15632935 -8.74230373 4.15632935 -6.99111748 1.71335411 C-4.56130044 -0.08064561 -3.00725647 0.00363924 0 0 Z " fill="#09090A" transform="translate(458.1864929199219,228.61904907226563)"/>
<path d="M0 0 C5.07458663 1.81934537 8.98479098 5.04744212 11.37890625 9.91015625 C13.01854499 15.4271797 12.67750981 20.96747057 10.875 26.375 C7.58237427 30.98467602 3.54058204 34.54889518 -2 36 C-8.3560324 36.62518351 -12.69625365 35.61833362 -18 32 C-22.41763974 27.58236026 -23.74616406 23.2482612 -24.4375 17.125 C-24.30550191 12.20335707 -22.05102187 8.73915996 -19 5 C-12.95821135 -0.4797618 -8.0134601 -0.87364791 0 0 Z " fill="#0D0E0D" transform="translate(419,225)"/>
<path d="M0 0 C4.78291321 2.65404792 7.60257553 6.32610759 9.75 11.3125 C10.73403731 18.04056908 9.82374206 23.81172853 5.75 29.3125 C2.79589335 32.78146524 0.13937231 34.11674056 -4.3828125 34.75390625 C-9.44722169 34.93271796 -13.19685099 34.81136006 -17.8125 32.625 C-22.78083078 27.91145542 -25.84345091 23.9036836 -26.625 17 C-25.87594162 9.63425931 -22.57792708 5.05492592 -16.93359375 0.44140625 C-11.71712046 -3.05641459 -5.45343219 -2.52794613 0 0 Z " fill="#0C0D0E" transform="translate(421.25,375.6875)"/>
<path d="M0 0 C4.78291321 2.65404792 7.60257553 6.32610759 9.75 11.3125 C10.73728556 18.062778 9.7380497 23.7420951 5.75 29.3125 C0.41449774 34.38773386 -4.18974251 34.66237281 -11.30078125 34.59375 C-16.52368637 34.09567163 -19.07053009 31.59025907 -22.5 27.875 C-25.85754701 22.95859187 -27.32059131 18.29456693 -26.25 12.3125 C-23.83444518 6.69348407 -20.16427474 2.83795797 -15.25 -0.6875 C-9.81939165 -2.49770278 -5.15256228 -2.38847747 0 0 Z " fill="#0B0C0C" transform="translate(421.25,300.6875)"/>
<path d="M0 0 C0.7734375 0.495 0.7734375 0.495 1.5625 1 C1.5625 1.66 1.5625 2.32 1.5625 3 C2.2225 3 2.8825 3 3.5625 3 C3.5625 1.68 3.5625 0.36 3.5625 -1 C5.8725 -1 8.1825 -1 10.5625 -1 C10.66177153 3.73219762 10.73415633 8.46378213 10.78222656 13.19677734 C10.80227627 14.80495774 10.82952364 16.41306583 10.86425781 18.02099609 C10.91307264 20.3397002 10.93553428 22.65743625 10.953125 24.9765625 C10.97377014 25.68930328 10.99441528 26.40204407 11.01568604 27.13638306 C11.01795254 32.23957669 9.77112148 35.07615082 6.5625 39 C1.61652344 42.49837366 -2.40132124 43.40241192 -8.4375 43 C-13.62790153 41.32851476 -16.38046772 39.52440778 -19.4375 35 C-17.1875 33.375 -17.1875 33.375 -14.4375 32 C-12.29373326 32.71458891 -11.02525583 33.41224417 -9.4375 35 C-4.19476205 35.50145928 -4.19476205 35.50145928 0.5625 33.8125 C1.87144168 31.44004321 1.77870175 29.6664882 1.5625 27 C0.9025 27.66 0.2425 28.32 -0.4375 29 C-4.94396653 29.61415562 -9.14981523 29.52055342 -13.375 27.8125 C-17.24880274 24.40824911 -19.33638325 20.46619284 -19.6875 15.375 C-19.62159495 10.8522658 -18.60106398 6.97875749 -16.4375 3 C-11.94409927 -1.35298196 -5.82406099 -2.38935835 0 0 Z " fill="#F2F3F4" transform="translate(338.4375,125)"/>
<path d="M0 0 C0.495 0.33 0.99 0.66 1.5 1 C2.16 0.34 2.82 -0.32 3.5 -1 C7.125 -1.125 7.125 -1.125 10.5 -1 C10.57447267 3.58980814 10.62875322 8.17926014 10.66479492 12.76953125 C10.67982869 14.32916394 10.70026135 15.88875472 10.72631836 17.44824219 C10.76294211 19.69737116 10.77978021 21.94593847 10.79296875 24.1953125 C10.80845261 24.8861795 10.82393646 25.57704651 10.83988953 26.28884888 C10.84148571 30.93969218 9.94025374 34.05132473 7.5 38 C2.72960116 42.30499408 -2.22839114 43.26793266 -8.5 43 C-12.51108085 42.01967987 -15.86717358 40.252315 -18.5 37 C-18.17 36.01 -17.84 35.02 -17.5 34 C-14.9375 32.8125 -14.9375 32.8125 -12.5 32 C-12.17 32.495 -11.84 32.99 -11.5 33.5 C-8.77616179 35.54287866 -6.70900074 35.42611584 -3.375 35.28515625 C-1.38853883 35.10309111 -1.38853883 35.10309111 0.5 33.8125 C1.80894168 31.44004321 1.71620175 29.6664882 1.5 27 C0.51 27.66 -0.48 28.32 -1.5 29 C-5.66052196 29.59992545 -9.4054114 29.43783544 -13.3125 27.875 C-16.88392232 24.81378087 -19.13462948 22.21252146 -19.921875 17.4453125 C-20.21834747 11.49939236 -19.30858764 7.49361314 -15.984375 2.55859375 C-11.71329431 -1.92604098 -5.54306256 -2.21722502 0 0 Z " fill="#F3F4F5" transform="translate(303.5,125)"/>
<path d="M0 0 C3.5 1.5 3.5 1.5 6 3 C6 2.34 6 1.68 6 1 C8.31 1 10.62 1 13 1 C13.07447267 5.58980814 13.12875322 10.17926014 13.16479492 14.76953125 C13.17982869 16.32916394 13.20026135 17.88875472 13.22631836 19.44824219 C13.26294211 21.69737116 13.27978021 23.94593847 13.29296875 26.1953125 C13.30845261 26.8861795 13.32393646 27.57704651 13.33988953 28.28884888 C13.34148438 32.93583839 12.42469821 36.04741481 10 40 C5.77023474 43.71706644 0.45707258 44.14928162 -5 44 C-9.46370376 43.02309514 -12.88948819 41.38636759 -16 38 C-15.67 37.01 -15.34 36.02 -15 35 C-11.9375 33.8125 -11.9375 33.8125 -9 33 C-8.649375 33.495 -8.29875 33.99 -7.9375 34.5 C-4.97447821 36.79395236 -2.62957303 36.38888282 1 36 C3.04451019 34.95625978 3.04451019 34.95625978 4 33 C4.25069913 30.37429296 4.25069913 30.37429296 4 28 C3.01 28.66 2.02 29.32 1 30 C-3.76821439 30.69502786 -7.76556158 30.69437161 -12 28.3125 C-16.15721749 23.50571727 -16.38182407 18.78606905 -16.25 12.65625 C-15.79778976 7.8515162 -14.01868834 5.10600448 -10.8125 1.625 C-7.16966202 -0.47975083 -4.06503455 -0.68939182 0 0 Z " fill="#F5F6F7" transform="translate(420,124)"/>
<path d="M0 0 C3.3 0 6.6 0 10 0 C12.64 5.94 15.28 11.88 18 18 C20.26998857 14.59501715 21.92252127 11.01850554 23.625 7.3125 C23.94984375 6.61060547 24.2746875 5.90871094 24.609375 5.18554688 C25.40848336 3.45806262 26.20454043 1.72916746 27 0 C29.97 0 32.94 0 36 0 C36 13.53 36 27.06 36 41 C33.36 41 30.72 41 28 41 C27.505 29.12 27.505 29.12 27 17 C24.69 21.95 22.38 26.9 20 32 C18.68 32 17.36 32 16 32 C13.69 26.72 11.38 21.44 9 16 C8.67 24.25 8.34 32.5 8 41 C5.36 41 2.72 41 0 41 C0 27.47 0 13.94 0 0 Z " fill="#F4F4F5" transform="translate(88,114)"/>
<path d="M0 0 C2.03515625 1.9765625 2.03515625 1.9765625 4.0625 4.625 C10.0091401 11.48800759 16.14872672 15.65706752 25.34765625 16.53515625 C35.53534542 17.06652853 44.97661451 15.83597975 53.1796875 9.25 C56.10619946 6.43277687 58.71334129 3.3627334 61 0 C63.31 0.33 65.62 0.66 68 1 C69.17078275 4.66845262 69.64027869 6.71265522 67.89453125 10.22265625 C61.74279661 18.74156669 51.70617651 25.39974832 41.34765625 27.55078125 C30.70234732 28.97926495 19.53055391 29.4853273 10 24 C9.06542969 23.49082031 8.13085938 22.98164063 7.16796875 22.45703125 C-0.02605626 18.24847847 -5.46279477 13.79246338 -8.0625 5.6875 C-8 3 -8 3 -6.875 1.125 C-4.33688867 -0.3978668 -2.92804718 -0.39908199 0 0 Z " fill="#0D0D0A" transform="translate(193,313)"/>
<path d="M0 0 C2.64 0 5.28 0 8 0 C8 5.28 8 10.56 8 16 C13.94 16 19.88 16 26 16 C26 10.72 26 5.44 26 0 C28.64 0 31.28 0 34 0 C34 13.53 34 27.06 34 41 C31.36 41 28.72 41 26 41 C26 35.39 26 29.78 26 24 C20.06 24 14.12 24 8 24 C8 29.61 8 35.22 8 41 C5.36 41 2.72 41 0 41 C0 27.47 0 13.94 0 0 Z " fill="#FBFBFC" transform="translate(210,114)"/>
<path d="M0 0 C1.62888879 2.11755542 1.89645665 4.00877923 2.25 6.625 C-2.205 7.12 -2.205 7.12 -6.75 7.625 C-7.08 6.635 -7.41 5.645 -7.75 4.625 C-10.73212913 3.13393543 -13.46609658 3.50558533 -16.75 3.625 C-18.04633621 4.69145115 -18.04633621 4.69145115 -17.8125 7.1875 C-17.791875 7.991875 -17.77125 8.79625 -17.75 9.625 C-16.615625 10.0375 -15.48125 10.45 -14.3125 10.875 C-12.78991458 11.45374472 -11.26919413 12.03741086 -9.75 12.625 C-8.95980469 12.92664063 -8.16960937 13.22828125 -7.35546875 13.5390625 C-2.68793384 15.44323097 0.81709475 16.97074648 3.25 21.625 C3.86142615 26.4399809 3.76030438 28.58476415 1.625 32.9375 C-1.89790788 36.92394839 -4.4676818 38.38949965 -9.81640625 38.94140625 C-19.58246991 39.28582943 -19.58246991 39.28582943 -23.375 36.875 C-27.5115894 32.95612583 -27.5115894 32.95612583 -28.75 30.625 C-28.4375 28.375 -28.4375 28.375 -27.75 26.625 C-24.285 26.13 -24.285 26.13 -20.75 25.625 C-20.36070312 26.27855469 -19.97140625 26.93210938 -19.5703125 27.60546875 C-17.91945188 29.85455042 -17.91945188 29.85455042 -15.3046875 30.05078125 C-13.97824219 29.99470703 -13.97824219 29.99470703 -12.625 29.9375 C-11.73554688 29.91300781 -10.84609375 29.88851562 -9.9296875 29.86328125 C-7.77410265 29.85779487 -7.77410265 29.85779487 -6.75 28.625 C-6.70936168 26.95882885 -6.707279 25.29111905 -6.75 23.625 C-7.84699219 23.26148437 -8.94398438 22.89796875 -10.07421875 22.5234375 C-11.52899067 22.01661373 -12.98339901 21.50874551 -14.4375 21 C-15.15873047 20.76410156 -15.87996094 20.52820313 -16.62304688 20.28515625 C-21.92752594 18.39588973 -24.62573557 16.35082911 -27.75 11.625 C-28.79204823 7.833864 -28.08677444 4.42262368 -26.5625 0.8125 C-23.94583784 -2.34554053 -21.31618029 -3.86704964 -17.4375 -5.125 C-10.44689941 -5.77528843 -5.53831245 -4.35153121 0 0 Z " fill="#F3F4F5" transform="translate(476.75,46.375)"/>
<path d="M0 0 C3.8026029 2.0050088 5.61790841 3.42686262 8 7 C8.31884766 8.99291992 8.31884766 8.99291992 8.4140625 11.23046875 C8.45273437 12.03291016 8.49140625 12.83535156 8.53125 13.66210938 C8.5621875 14.49548828 8.593125 15.32886719 8.625 16.1875 C8.66367187 17.03248047 8.70234375 17.87746094 8.7421875 18.74804688 C8.83636279 20.83167524 8.91926675 22.91580753 9 25 C9.66 25.33 10.32 25.66 11 26 C11 27.98 11 29.96 11 32 C9.741875 32.020625 8.48375 32.04125 7.1875 32.0625 C6.12595703 32.07990234 6.12595703 32.07990234 5.04296875 32.09765625 C3 32 3 32 0 31 C-1.34050052 31.65213539 -2.67308079 32.32065646 -4 33 C-8.73330294 33.66189277 -12.74278231 33.61578009 -17.0625 31.5 C-19.68253735 28.11930665 -20.4234072 25.25947641 -20 21 C-18.19519743 17.67916327 -16.73991573 16.36995787 -13.375 14.6875 C-8.88335806 13.7725359 -4.56629792 13.83756252 0 14 C-0.66 12.02 -1.32 10.04 -2 8 C-4.64 8 -7.28 8 -10 8 C-10 8.99 -10 9.98 -10 11 C-15.75 11.125 -15.75 11.125 -18 10 C-17.70540991 6.46491897 -17.25118587 5.23796556 -14.625 2.75 C-9.95131979 -0.3657868 -5.46959507 -0.69069972 0 0 Z " fill="#F5F6F7" transform="translate(344,52)"/>
<path d="M0 0 C3.6407696 2.07024154 4.51232962 3.02342414 6.1875 6.8125 C6.53748857 9.9282342 6.47134951 12.99487612 6.375 16.125 C6.35469727 17.37893555 6.35469727 17.37893555 6.33398438 18.65820312 C6.29881217 20.70991498 6.24501048 22.76129275 6.1875 24.8125 C6.8475 24.8125 7.5075 24.8125 8.1875 24.8125 C8.1875 26.7925 8.1875 28.7725 8.1875 30.8125 C1.5625 30.9375 1.5625 30.9375 -1.8125 29.8125 C-2.51375 30.121875 -3.215 30.43125 -3.9375 30.75 C-7.96009833 32.23661243 -11.57297102 32.40388357 -15.8125 31.8125 C-18.8125 30.375 -18.8125 30.375 -20.8125 27.8125 C-21.89233366 24.71736179 -22.31697299 22.06548101 -21.8125 18.8125 C-19.51462495 15.58940794 -16.54204746 14.05568249 -12.8125 12.8125 C-10.91779184 12.7439505 -9.0208166 12.72769628 -7.125 12.75 C-6.13113281 12.75902344 -5.13726562 12.76804687 -4.11328125 12.77734375 C-2.97439453 12.79474609 -2.97439453 12.79474609 -1.8125 12.8125 C-2.90034968 9.56266865 -2.90034968 9.56266865 -4.8125 6.8125 C-7.77054573 6.47909529 -7.77054573 6.47909529 -10.8125 6.8125 C-11.8025 8.2975 -11.8025 8.2975 -12.8125 9.8125 C-15.4525 9.4825 -18.0925 9.1525 -20.8125 8.8125 C-19.45967831 4.38508356 -17.57951112 2.44940779 -13.8125 -0.1875 C-9.34314955 -2.42217522 -4.55319138 -1.41820715 0 0 Z " fill="#F6F7F8" transform="translate(422.8125,53.1875)"/>
<path d="M0 0 C3.37518246 3.06834769 5.47638735 6.10229043 6.75 10.5 C6.75 12.81 6.75 15.12 6.75 17.5 C-0.51 17.5 -7.77 17.5 -15.25 17.5 C-13.0702544 23.56934403 -13.0702544 23.56934403 -9.375 24.5625 C-6.20611144 24.77148321 -6.20611144 24.77148321 -3.8125 22.9375 C-1.25 21.5 -1.25 21.5 2.5625 22.3125 C4.1403125 22.9003125 4.1403125 22.9003125 5.75 23.5 C4.45989008 26.37793751 3.17638194 28.46183917 0.75 30.5 C-5.09676955 32.44892318 -11.18952262 32.49344445 -16.75 29.8125 C-20.58567976 26.26449622 -22.92576838 22.54033585 -23.48828125 17.265625 C-23.6363701 12.24619235 -23.49454153 8.22338404 -20.640625 3.97265625 C-15.07823875 -1.9178483 -7.29214233 -3.36560415 0 0 Z " fill="#F2F3F4" transform="translate(300.25,53.5)"/>
<path d="M0 0 C4.50935115 2.33818208 7.85736451 4.98759735 9.6875 9.8125 C10.12085336 12.84597355 10 15.93572897 10 19 C3.07 19 -3.86 19 -11 19 C-9.45957252 23.80304035 -9.45957252 23.80304035 -7 26 C-2.73527274 26.49329585 -2.73527274 26.49329585 0.875 24.5 C1.24625 24.005 1.6175 23.51 2 23 C4.31 23.66 6.62 24.32 9 25 C8.10839269 28.29894706 7.33503019 29.75087499 4.5625 31.8125 C-1.59057214 33.86352405 -7.41251929 34.08203739 -13.4375 31.5625 C-17.52124528 27.47875472 -19.80054536 23.23505693 -20.16015625 17.40234375 C-19.73083054 10.45983282 -17.56998388 6.27114855 -12.3125 1.625 C-8.03706065 -0.47238534 -4.67841608 -0.83842582 0 0 Z " fill="#F2F3F4" transform="translate(504,52)"/>
<path d="M0 0 C5.34740414 1.95385921 8.45618143 4.91236287 11 10 C11 12.97 11 15.94 11 19 C4.07 19 -2.86 19 -10 19 C-8.34922098 22.75170424 -8.34922098 22.75170424 -6 26 C-1.73919411 26.44979055 -1.73919411 26.44979055 1.875 24.5 C2.24625 24.005 2.6175 23.51 3 23 C5.31 23.66 7.62 24.32 10 25 C9.62118922 27.74637817 9.22167713 28.80049058 7.125 30.6875 C2.11885235 33.77953237 -3.29985487 33.5789847 -9 33 C-12.68611691 31.28858858 -14.42111183 29.75255462 -16.875 26.5625 C-18.9753158 19.91149996 -19.29467782 12.83833215 -16.375 6.4375 C-11.29532819 1.22415261 -7.24379878 -1.187983 0 0 Z " fill="#F3F4F5" transform="translate(136,52)"/>
<path d="M0 0 C3.01208966 2.65772617 3.93437824 5.05247751 5.125 8.875 C5.125 11.515 5.125 14.155 5.125 16.875 C-1.805 16.875 -8.735 16.875 -15.875 16.875 C-13.69679807 22.92806921 -13.69679807 22.92806921 -10.0625 23.9375 C-6.78261955 24.10939798 -6.78261955 24.10939798 -3.875 22.3125 C-0.875 20.875 -0.875 20.875 2.5 21.6875 C3.36625 22.079375 4.2325 22.47125 5.125 22.875 C3.59198025 27.16745529 1.1572912 28.89422537 -2.875 30.875 C-8.1412896 31.6575096 -12.44143711 31.5266195 -17.3125 29.3125 C-22.20551028 24.65817315 -24.10020572 21.05250101 -24.375 14.375 C-24.1396969 9.01450122 -23.28301011 6.04981238 -19.875 1.875 C-13.51558878 -3.07758887 -7.26976617 -2.84469111 0 0 Z " fill="#F3F4F5" transform="translate(646.875,54.125)"/>
<path d="M0 0 C9.24 0 18.48 0 28 0 C28 2.64 28 5.28 28 8 C21.73 8 15.46 8 9 8 C9 11.63 9 15.26 9 19 C14.28 19 19.56 19 25 19 C25 21.31 25 23.62 25 26 C19.72 26 14.44 26 9 26 C9 31.61 9 37.22 9 43 C6.03 43 3.06 43 0 43 C0 28.81 0 14.62 0 0 Z " fill="#F2F2F4" transform="translate(34,42)"/>
<path d="M0 0 C3.22309333 1.7829878 4.57175356 3.0808369 6.12109375 6.40625 C7.38554278 11.57644158 7.20984617 16.57537791 7.125 21.875 C7.11597656 22.94492188 7.10695313 24.01484375 7.09765625 25.1171875 C7.07419342 27.74502439 7.04136459 30.37239406 7 33 C4.03 33 1.06 33 -2 33 C-2.02505615 32.30849854 -2.0501123 31.61699707 -2.07592773 30.90454102 C-2.19152161 27.79032134 -2.31441242 24.67643211 -2.4375 21.5625 C-2.47681641 20.47388672 -2.51613281 19.38527344 -2.55664062 18.26367188 C-2.59853516 17.22919922 -2.64042969 16.19472656 -2.68359375 15.12890625 C-2.72025146 14.17056885 -2.75690918 13.21223145 -2.79467773 12.22485352 C-2.75834424 10.02861075 -2.75834424 10.02861075 -4 9 C-7.5 8.83333333 -7.5 8.83333333 -11 9 C-12.64648093 10.64648093 -12.20577389 12.60750482 -12.28125 14.875 C-12.31863281 15.85984375 -12.35601562 16.8446875 -12.39453125 17.859375 C-12.42933594 18.89578125 -12.46414062 19.9321875 -12.5 21 C-12.56856849 23.04181732 -12.64125858 25.08350185 -12.71875 27.125 C-12.76418945 28.49011719 -12.76418945 28.49011719 -12.81054688 29.8828125 C-13 32 -13 32 -14 33 C-16.64 33 -19.28 33 -22 33 C-22 22.44 -22 11.88 -22 1 C-19.69 1 -17.38 1 -15 1 C-14.67 1.99 -14.34 2.98 -14 4 C-13.360625 3.34 -12.72125 2.68 -12.0625 2 C-7.96688921 -0.6746846 -4.7701143 -0.84840508 0 0 Z " fill="#ECEDEE" transform="translate(265,52)"/>
<path d="M0 0 C3.1499545 1.30891313 5.43610174 2.87220349 7 6 C7.15004973 7.3734635 7.24838006 8.7528526 7.31640625 10.1328125 C7.35830078 10.93847656 7.40019531 11.74414062 7.44335938 12.57421875 C7.48267578 13.41597656 7.52199219 14.25773438 7.5625 15.125 C7.60568359 15.97449219 7.64886719 16.82398438 7.69335938 17.69921875 C7.79954236 19.79928223 7.90028497 21.89961948 8 24 C8.66 24.33 9.32 24.66 10 25 C10 26.98 10 28.96 10 31 C3.375 31.25 3.375 31.25 0 29 C-0.99 29.66 -1.98 30.32 -3 31 C-7.78663517 31.62847424 -12.37604098 31.86862924 -16.6875 29.5625 C-18.65590728 25.71941913 -18.90745052 22.21925713 -18 18 C-15.25723966 14.95248851 -12.94900288 13.76221563 -9 13 C-7.41788427 12.93451508 -5.83329919 12.91421619 -4.25 12.9375 C-3.45078125 12.94652344 -2.6515625 12.95554688 -1.828125 12.96484375 C-1.22484375 12.97644531 -0.6215625 12.98804688 0 13 C-0.66 11.35 -1.32 9.7 -2 8 C-4.31 8 -6.62 8 -9 8 C-9.33 8.66 -9.66 9.32 -10 10 C-12.31 9.67 -14.62 9.34 -17 9 C-16.73309994 5.79719931 -16.16670984 4.2056088 -14.125 1.6875 C-9.47009612 -0.82614809 -5.18001936 -0.77359001 0 0 Z " fill="#F5F6F7" transform="translate(503,124)"/>
<path d="M0 0 C3.4471633 2.85622102 5.76541895 5.54625684 7.1875 9.8125 C7.1875 12.1225 7.1875 14.4325 7.1875 16.8125 C0.5875 16.8125 -6.0125 16.8125 -12.8125 16.8125 C-12.4825 18.7925 -12.1525 20.7725 -11.8125 22.8125 C-10.39626784 22.86697047 -8.97941809 22.90550508 -7.5625 22.9375 C-6.37914062 22.97230469 -6.37914062 22.97230469 -5.171875 23.0078125 C-2.77079735 22.95629169 -2.77079735 22.95629169 -0.6875 21.75 C1.1875 20.8125 1.1875 20.8125 3.9375 21.6875 C4.68 22.05875 5.4225 22.43 6.1875 22.8125 C4.72001634 26.68132056 2.92942045 28.10423197 -0.8125 29.8125 C-6.85468029 31.17686329 -10.27420082 31.00767261 -15.8125 27.8125 C-20.90791367 22.31481683 -21.21283288 18.44182109 -21.1640625 11.09375 C-20.642642 6.22715867 -19.2090246 4.28621834 -15.8125 0.8125 C-10.87757366 -2.19933133 -5.26836186 -2.22441945 0 0 Z " fill="#F0F0F2" transform="translate(568.8125,125.1875)"/>
<path d="M0 0 C0.94875 0.04125 1.8975 0.0825 2.875 0.125 C3.308125 1.15625 3.74125 2.1875 4.1875 3.25 C6.4222093 9.64473577 6.4222093 9.64473577 10.875 14.125 C13.80797902 14.40883668 16.02633893 14.61575943 18.875 14.125 C23.01904048 10.61850421 23.19081292 7.30527358 23.875 2.125 C27.7253105 -0.44187367 29.46069763 0.29211276 33.875 1.125 C35.29827726 7.20627557 34.44998043 11.45149539 31.875 17.125 C29.17589983 21.46283955 25.75004059 24.49708466 20.875 26.125 C15.41436311 26.85951502 9.93301376 27.10160235 4.9375 24.5 C-1.31205021 19.65341004 -4.53645675 14.88167062 -6.125 7.125 C-5.83101139 2.51917841 -4.96017048 0.19840682 0 0 Z " fill="#0D0D0A" transform="translate(246.125,270.875)"/>
<path d="M0 0 C3.0625 0.3125 3.0625 0.3125 4.8125 1.3125 C6.11041659 3.38916655 6.5221544 4.94195156 7.0625 7.3125 C7.59056866 9.59241547 8.03483857 11.26332412 9.1875 13.3125 C12.37346293 15.01168023 15.59888116 14.91547818 19.0625 14.3125 C23.23396953 11.71942435 24.1303061 7.74026799 25.44921875 3.23828125 C26.0625 1.3125 26.0625 1.3125 27.0625 0.3125 C30 0.125 30 0.125 33.0625 0.3125 C35.52223778 2.77223778 35.38551675 3.60549385 35.4375 7 C35.28832448 13.09864637 33.61857665 16.74480482 29.34375 21.0390625 C23.61585854 26.1601858 19.01667194 26.79150896 11.3671875 26.71484375 C6.30842631 26.09894256 3.34113627 24.14834292 0.0625 20.3125 C-3.6508569 14.54702481 -5.31419521 9.21857885 -4.9375 2.3125 C-2.9375 0.3125 -2.9375 0.3125 0 0 Z " fill="#0D0D0A" transform="translate(170.9375,270.6875)"/>
<path d="M0 0 C2.64 0 5.28 0 8 0 C8.01458252 0.62044189 8.02916504 1.24088379 8.04418945 1.88012695 C8.11866588 4.69154633 8.21532564 7.50177749 8.3125 10.3125 C8.33505859 11.28896484 8.35761719 12.26542969 8.38085938 13.27148438 C8.41630859 14.20927734 8.45175781 15.14707031 8.48828125 16.11328125 C8.51446533 16.97735596 8.54064941 17.84143066 8.56762695 18.73168945 C9.0859174 21.45073889 9.75698286 22.40489974 12 24 C15.11993606 23.92457659 15.11993606 23.92457659 18 23 C19.20270964 20.59458071 19.20316663 18.89633409 19.31640625 16.2109375 C19.35830078 15.26992187 19.40019531 14.32890625 19.44335938 13.359375 C19.48267578 12.37453125 19.52199219 11.3896875 19.5625 10.375 C19.60568359 9.38242187 19.64886719 8.38984375 19.69335938 7.3671875 C19.79961069 4.91160162 19.90164964 2.45591297 20 0 C22.97 0 25.94 0 29 0 C29.02465504 4.39656173 29.04283842 8.7930872 29.05493164 13.18969727 C29.05997121 14.68644918 29.06680287 16.18319616 29.07543945 17.67993164 C29.08752159 19.82699807 29.09323191 21.97399962 29.09765625 24.12109375 C29.10551147 26.06133423 29.10551147 26.06133423 29.11352539 28.04077148 C29 31 29 31 28 32 C25.0625 32.25 25.0625 32.25 22 32 C21.34 31.01 20.68 30.02 20 29 C19.44183594 29.4846875 18.88367188 29.969375 18.30859375 30.46875 C14.4470765 33.03002709 10.46870201 32.78816912 6 32 C2.65374976 29.47323961 1.32022153 27.96066458 0 24 C-0.08239169 22.15389468 -0.10743359 20.30494836 -0.09765625 18.45703125 C-0.09443359 17.38388672 -0.09121094 16.31074219 -0.08789062 15.20507812 C-0.07951172 14.08552734 -0.07113281 12.96597656 -0.0625 11.8125 C-0.05798828 10.68134766 -0.05347656 9.55019531 -0.04882812 8.38476562 C-0.03703498 5.58979073 -0.0205765 2.7949218 0 0 Z " fill="#F3F3F5" transform="translate(208,53)"/>
<path d="M0 0 C8.58 0 17.16 0 26 0 C26 2.31 26 4.62 26 7 C20.39 7 14.78 7 9 7 C9 10.3 9 13.6 9 17 C13.95 17 18.9 17 24 17 C24 19.64 24 22.28 24 25 C18.72 25 13.44 25 8 25 C8 30.28 8 35.56 8 41 C5.36 41 2.72 41 0 41 C0 27.47 0 13.94 0 0 Z " fill="#F0F0F2" transform="translate(456,114)"/>
<path d="M0 0 C11.22 0 22.44 0 34 0 C34 2.64 34 5.28 34 8 C29.71 8 25.42 8 21 8 C21 19.55 21 31.1 21 43 C18.03 43 15.06 43 12 43 C12 31.45 12 19.9 12 8 C8.04 8 4.08 8 0 8 C0 5.36 0 2.72 0 0 Z " fill="#EEEEEF" transform="translate(173,42)"/>
<path d="M0 0 C2.31 0 4.62 0 7 0 C7.33 0.99 7.66 1.98 8 3 C8.495 2.505 8.99 2.01 9.5 1.5 C12.95106192 -0.57063715 16.11793814 -0.57883626 20 0 C23.58552881 1.63687185 24.79315055 2.68972583 27 6 C27.86485101 9.33078519 28.11979799 12.43131079 28.09765625 15.86328125 C28.09443359 16.74951172 28.09121094 17.63574219 28.08789062 18.54882812 C28.07951172 19.46083984 28.07113281 20.37285156 28.0625 21.3125 C28.05798828 22.24384766 28.05347656 23.17519531 28.04882812 24.13476562 C28.03709254 26.42320487 28.01915861 28.71161086 28 31 C25.03 31 22.06 31 19 31 C18.97494385 30.3387915 18.9498877 29.67758301 18.92407227 28.99633789 C18.80846898 26.01817695 18.68558246 23.0403608 18.5625 20.0625 C18.52318359 19.02158203 18.48386719 17.98066406 18.44335938 16.90820312 C18.40146484 15.91884766 18.35957031 14.92949219 18.31640625 13.91015625 C18.27974854 12.99371338 18.24309082 12.07727051 18.20532227 11.13305664 C18.22996136 9.0179272 18.22996136 9.0179272 17 8 C14.04195427 7.66659529 14.04195427 7.66659529 11 8 C8.91254955 11.13117567 8.72346004 12.06946224 8.5859375 15.66796875 C8.52792969 17.00698242 8.52792969 17.00698242 8.46875 18.37304688 C8.42234375 19.76620117 8.42234375 19.76620117 8.375 21.1875 C8.31699219 22.59805664 8.31699219 22.59805664 8.2578125 24.03710938 C8.16356813 26.3578771 8.07795975 28.67863748 8 31 C5.36 31 2.72 31 0 31 C0 20.77 0 10.54 0 0 Z " fill="#EEEEEF" transform="translate(371,124)"/>
<path d="M0 0 C5.34931275 2.01860859 5.34931275 2.01860859 7.15576172 4.74316406 C8.21242479 7.56785851 8.22606977 9.84516208 8.1953125 12.859375 C8.18886719 13.97441406 8.18242188 15.08945313 8.17578125 16.23828125 C8.15902344 17.39714844 8.14226562 18.55601563 8.125 19.75 C8.11597656 20.92433594 8.10695313 22.09867188 8.09765625 23.30859375 C8.07410063 26.20593536 8.04120652 29.10286441 8 32 C5.36 32 2.72 32 0 32 C-0.01458252 31.37955811 -0.02916504 30.75911621 -0.04418945 30.11987305 C-0.11866588 27.30845367 -0.21532564 24.49822251 -0.3125 21.6875 C-0.33505859 20.71103516 -0.35761719 19.73457031 -0.38085938 18.72851562 C-0.4340332 17.32182617 -0.4340332 17.32182617 -0.48828125 15.88671875 C-0.51446533 15.02264404 -0.54064941 14.15856934 -0.56762695 13.26831055 C-1.08689515 10.54413168 -1.76838494 9.6146449 -4 8 C-7.12549017 7.74951364 -7.12549017 7.74951364 -10 8 C-10.95168683 10.85506049 -11.1900946 12.90937282 -11.31640625 15.88671875 C-11.35830078 16.82451172 -11.40019531 17.76230469 -11.44335938 18.72851562 C-11.48267578 19.70498047 -11.52199219 20.68144531 -11.5625 21.6875 C-11.60568359 22.67556641 -11.64886719 23.66363281 -11.69335938 24.68164062 C-11.79941654 27.12095546 -11.90147714 29.56037113 -12 32 C-14.64 32 -17.28 32 -20 32 C-20 21.77 -20 11.54 -20 1 C-17.69 1 -15.38 1 -13 1 C-12.67 1.99 -12.34 2.98 -12 4 C-11.319375 3.34 -10.63875 2.68 -9.9375 2 C-6.24672283 -0.51286956 -4.39366908 -0.5395734 0 0 Z " fill="#FBFBFB" transform="translate(104,52)"/>
<path d="M0 0 C3.52185256 1.97678176 5.69957163 4.0987149 7 8 C7.08209792 9.77313851 7.10746294 11.54920775 7.09765625 13.32421875 C7.09443359 14.35224609 7.09121094 15.38027344 7.08789062 16.43945312 C7.07951172 17.51130859 7.07113281 18.58316406 7.0625 19.6875 C7.05798828 20.77095703 7.05347656 21.85441406 7.04882812 22.97070312 C7.03703743 25.64719085 7.02058063 28.32356777 7 31 C4.36 31 1.72 31 -1 31 C-1.01458252 30.37955811 -1.02916504 29.75911621 -1.04418945 29.11987305 C-1.11866588 26.30845367 -1.21532564 23.49822251 -1.3125 20.6875 C-1.33505859 19.71103516 -1.35761719 18.73457031 -1.38085938 17.72851562 C-1.4340332 16.32182617 -1.4340332 16.32182617 -1.48828125 14.88671875 C-1.51446533 14.02264404 -1.54064941 13.15856934 -1.56762695 12.26831055 C-2.08370192 9.56088392 -2.78083792 8.60304169 -5 7 C-8.31818985 7.24205349 -8.31818985 7.24205349 -11 9 C-11.15714654 10.63256758 -11.25085414 12.27135338 -11.31640625 13.91015625 C-11.35830078 14.89951172 -11.40019531 15.88886719 -11.44335938 16.90820312 C-11.48267578 17.94912109 -11.52199219 18.99003906 -11.5625 20.0625 C-11.60568359 21.10728516 -11.64886719 22.15207031 -11.69335938 23.22851562 C-11.79981225 25.81886884 -11.9018276 28.40932186 -12 31 C-14.64 31 -17.28 31 -20 31 C-20 21.1 -20 11.2 -20 1 C-17.69 1 -15.38 1 -13 1 C-12.67 1.66 -12.34 2.32 -12 3 C-11.505 2.505 -11.01 2.01 -10.5 1.5 C-7.03279808 -0.58032115 -3.88669204 -0.8131467 0 0 Z " fill="#F7F7F8" transform="translate(166,124)"/>
<path d="M0 0 C2.64 0 5.28 0 8 0 C8.01981934 0.58491211 8.03963867 1.16982422 8.06005859 1.77246094 C8.15553481 4.43208025 8.26512142 7.09093838 8.375 9.75 C8.4059375 10.67039063 8.436875 11.59078125 8.46875 12.5390625 C8.50742187 13.42851562 8.54609375 14.31796875 8.5859375 15.234375 C8.6173584 16.05131836 8.6487793 16.86826172 8.68115234 17.70996094 C9.02343693 20.16832958 9.7739277 21.85759999 11 24 C14.55927865 24.33826261 14.55927865 24.33826261 17.63598633 22.7800293 C19.36851881 20.51908526 19.42162291 19.16104063 19.51171875 16.33203125 C19.54716797 15.43935547 19.58261719 14.54667969 19.61914062 13.62695312 C19.64169922 12.69818359 19.66425781 11.76941406 19.6875 10.8125 C19.72166016 9.87212891 19.75582031 8.93175781 19.79101562 7.96289062 C19.87348218 5.64204607 19.94263403 3.32157852 20 1 C22.31 1 24.62 1 27 1 C27 10.9 27 20.8 27 31 C25.02 31 23.04 31 21 31 C20.67 30.01 20.34 29.02 20 28 C19.34 28.66 18.68 29.32 18 30 C14.18272413 32.54485058 11.46821261 32.88640655 7 32 C3.81926971 30.20219592 2.40377936 28.87485529 0.875 25.5625 C-0.35450953 20.55663975 -0.21108592 15.7570452 -0.125 10.625 C-0.11597656 9.60277344 -0.10695312 8.58054688 -0.09765625 7.52734375 C-0.0742043 5.01798478 -0.04138355 2.50911664 0 0 Z " fill="#F5F5F6" transform="translate(251,124)"/>
<path d="M0 0 C3.75319208 1.84247611 5.5026965 3.005393 7.375 6.75 C7.58125 7.4925 7.7875 8.235 8 9 C5.36 9.33 2.72 9.66 0 10 C-0.33 9.34 -0.66 8.68 -1 8 C-3.31 8 -5.62 8 -8 8 C-8.00412113 9.96843028 -8.00412113 9.96843028 -7 12 C-4.06077121 13.26327444 -4.06077121 13.26327444 -0.5625 14.0625 C5.79179532 15.68769299 5.79179532 15.68769299 8 19 C8.68873936 23.34866829 8.81177729 26.88030718 6.1875 30.5 C1.27523246 33.86841203 -4.26154016 33.48730698 -10 33 C-13.08073848 31.6168113 -14.6384567 30.3615433 -17 28 C-17 26.68 -17 25.36 -17 24 C-13.535 23.505 -13.535 23.505 -10 23 C-9.34 23.99 -8.68 24.98 -8 26 C-4.41642759 26.25015873 -4.41642759 26.25015873 -1 26 C-0.67 24.68 -0.34 23.36 0 22 C-0.89203125 21.76925781 -1.7840625 21.53851563 -2.703125 21.30078125 C-3.87359375 20.97464844 -5.0440625 20.64851563 -6.25 20.3125 C-7.41015625 19.99925781 -8.5703125 19.68601562 -9.765625 19.36328125 C-13.45838621 17.80679132 -14.87556985 16.3568059 -17 13 C-17.64493618 9.13038295 -17.36435685 7.57256076 -15.25 4.25 C-10.71329656 -0.28670344 -6.20930303 -0.87166992 0 0 Z " fill="#F4F4F5" transform="translate(375,52)"/>
<path d="M0 0 C4.40988501 2.24654519 6.87830799 4.52087243 9 9 C9 9.66 9 10.32 9 11 C3.71254355 12.05749129 3.71254355 12.05749129 1 12 C-1.1875 10.0625 -1.1875 10.0625 -3 8 C-5.58582128 7.41597867 -5.58582128 7.41597867 -8 8 C-10.31590289 11.47385433 -10.26991835 12.96430006 -10.25 17.0625 C-10.25515625 18.12597656 -10.2603125 19.18945312 -10.265625 20.28515625 C-10.27557135 23.14768903 -10.27557135 23.14768903 -8 25 C-5.04230823 25.50010524 -5.04230823 25.50010524 -2 25 C-0.08743288 23.11922127 -0.08743288 23.11922127 1 21 C3.64 21.33 6.28 21.66 9 22 C7.79645581 26.41299538 6.56751319 29.08112557 3 32 C-1.95532496 33.65177499 -8.08707652 34.35430511 -12.94921875 32.09375 C-17.00543916 28.90598988 -19.60582547 24.9946315 -20.28125 19.86328125 C-20.49545131 14.60642403 -19.67080138 10.62938906 -17 6 C-12.1151884 0.84825881 -7.06916561 -0.96397713 0 0 Z " fill="#F2F2F4" transform="translate(610,52)"/>
<path d="M0 0 C3.23504211 1.44544435 5.77923099 3.22403874 8 6 C8.6875 8.1875 8.6875 8.1875 9 10 C6.36 10.33 3.72 10.66 1 11 C0.608125 10.34 0.21625 9.68 -0.1875 9 C-1.84093546 6.76410881 -1.84093546 6.76410881 -4.5 6.5625 C-7.47897919 7.08382136 -8.20378213 7.60675842 -10 10 C-10.43810344 12.63707148 -10.43810344 12.63707148 -10.3125 15.5 C-10.30863281 16.4590625 -10.30476562 17.418125 -10.30078125 18.40625 C-10.17217748 21.2348262 -10.17217748 21.2348262 -8 24 C-5.04253508 24.58345476 -5.04253508 24.58345476 -2 24 C-0.08743288 22.11922127 -0.08743288 22.11922127 1 20 C3.31 20.33 5.62 20.66 8 21 C7.81889572 24.98429423 7.47745228 26.55835664 4.5 29.3125 C-0.23658023 31.59620833 -4.87041007 33.07937687 -10.02734375 31.30078125 C-14.77887513 28.75926447 -17.32145158 26.03564526 -19 21 C-19.50442239 15.7325072 -19.6716659 11.36820832 -17.3125 6.5625 C-16.549375 5.716875 -15.78625 4.87125 -15 4 C-13.948125 2.824375 -13.948125 2.824375 -12.875 1.625 C-8.6309492 -0.77381132 -4.76757939 -0.65976387 0 0 Z " fill="#F4F5F6" transform="translate(535,124)"/>
<path d="M0 0 C2.97 0 5.94 0 9 0 C10.98 6.6 12.96 13.2 15 20 C17.02918548 15.26523388 18.72811385 10.94389506 20.1875 6.0625 C20.53167969 4.91910156 20.87585938 3.77570312 21.23046875 2.59765625 C21.61138672 1.31181641 21.61138672 1.31181641 22 0 C24.97 0 27.94 0 31 0 C20.96439169 29.03560831 20.96439169 29.03560831 19 31 C16.32941149 31.14115161 13.67567762 31.04247107 11 31 C9.4268862 27.06987792 7.86050167 23.13716168 6.30029297 19.2019043 C5.76860679 17.86360574 5.23508993 16.52603297 4.69970703 15.18920898 C3.93039 13.26734371 3.16769846 11.34296284 2.40625 9.41796875 C1.94541016 8.26063232 1.48457031 7.1032959 1.00976562 5.91088867 C0 3 0 3 0 0 Z " fill="#F6F6F7" transform="translate(541,53)"/>
<path d="M0 0 C1.3303125 0.37125 1.3303125 0.37125 2.6875 0.75 C2.3575 3.06 2.0275 5.37 1.6875 7.75 C0.57375 8.03875 -0.54 8.3275 -1.6875 8.625 C-5.31541092 9.44241329 -5.31541092 9.44241329 -7.3125 11.75 C-7.68202049 13.87860662 -7.68202049 13.87860662 -7.7265625 16.3203125 C-7.78457031 17.66416016 -7.78457031 17.66416016 -7.84375 19.03515625 C-7.89015625 20.44087891 -7.89015625 20.44087891 -7.9375 21.875 C-7.99550781 23.29232422 -7.99550781 23.29232422 -8.0546875 24.73828125 C-8.14911346 27.07532375 -8.23468394 29.41235501 -8.3125 31.75 C-10.9525 31.75 -13.5925 31.75 -16.3125 31.75 C-16.3125 21.52 -16.3125 11.29 -16.3125 0.75 C-14.0025 0.75 -11.6925 0.75 -9.3125 0.75 C-8.9825 1.74 -8.6525 2.73 -8.3125 3.75 C-7.61125 3.069375 -6.91 2.38875 -6.1875 1.6875 C-3.3125 -0.25 -3.3125 -0.25 0 0 Z " fill="#F9F9FA" transform="translate(536.3125,52.25)"/>
<path d="M0 0 C2.64 0 5.28 0 8 0 C8 10.23 8 20.46 8 31 C5.36 31 2.72 31 0 31 C0 20.77 0 10.54 0 0 Z " fill="#FBFCFD" transform="translate(576,53)"/>
<path d="M0 0 C2.64 0 5.28 0 8 0 C8 10.23 8 20.46 8 31 C5.36 31 2.72 31 0 31 C0 20.77 0 10.54 0 0 Z " fill="#FBFBFC" transform="translate(68,53)"/>
<path d="M0 0 C2.64 0 5.28 0 8 0 C8 9.9 8 19.8 8 30 C5.36 30 2.72 30 0 30 C0 20.1 0 10.2 0 0 Z " fill="#F8F9FB" transform="translate(356,125)"/>
<path d="M0 0 C2.64 0 5.28 0 8 0 C8 9.9 8 19.8 8 30 C5.36 30 2.72 30 0 30 C0 20.1 0 10.2 0 0 Z " fill="#F6F7F7" transform="translate(131,125)"/>
<path d="M0 0 C2.31 0 4.62 0 7 0 C7 9.9 7 19.8 7 30 C4.69 30 2.38 30 0 30 C0 20.1 0 10.2 0 0 Z " fill="#FDFDFD" transform="translate(180,125)"/>
<path d="M0 0 C3.12194594 0.21233824 3.74069749 0.35759428 6 2.6875 C7.46485319 6.99050625 7.71059712 10.6962364 6.125 15 C5 16.625 5 16.625 3 17.625 C-2.39478261 18.08413043 -2.39478261 18.08413043 -4.8125 16.25 C-7.40380992 12.70399695 -7.29502903 9.97667821 -7 5.625 C-5.58654948 1.47298911 -4.2727891 0.29061249 0 0 Z " fill="#1C2832" transform="translate(299,130.375)"/>
<path d="M0 0 C2.29149008 1.64733849 2.92108935 2.53659336 3.3984375 5.33984375 C3.39070313 6.19707031 3.38296875 7.05429688 3.375 7.9375 C3.38273437 8.79214844 3.39046875 9.64679688 3.3984375 10.52734375 C2.92034045 13.4943578 2.10470141 14.87105088 0 17 C-3.64942331 17.52134619 -5.90622489 17.81151056 -8.9375 15.5625 C-10.54136452 11.69435616 -10.537354 8.12475961 -10 4 C-7.97247663 -0.88990931 -4.906588 -0.6133235 0 0 Z " fill="#18242F" transform="translate(422,131)"/>
<path d="M0 0 C2.69239355 2.77924496 3.19994956 5.31642048 3.375 9.0625 C3 13 3 13 1.9375 15.5 C-1.05072823 17.81346701 -3.34503841 17.4568702 -7 17 C-8.6953125 15.81640625 -8.6953125 15.81640625 -10 14 C-10.3984375 11.40625 -10.3984375 11.40625 -10.375 8.5 C-10.38273437 7.5409375 -10.39046875 6.581875 -10.3984375 5.59375 C-10 3 -10 3 -8.6953125 1.1875 C-5.78812093 -0.84887382 -3.40628235 -0.48661176 0 0 Z " fill="#1A2630" transform="translate(338,131)"/>
<path d="M0 0 C2.3125 1.5625 2.3125 1.5625 4 4 C4.42519574 7.46230815 4.63902633 9.8347167 2.9375 12.9375 C-0.1652833 14.63902633 -2.53769185 14.42519574 -6 14 C-8.4375 12.375 -8.4375 12.375 -10 10 C-10.5625 7 -10.5625 7 -10 4 C-6.94670598 0.68499507 -4.5294194 -0.92911167 0 0 Z " fill="#F1CB27" transform="translate(416,310)"/>
<path d="M0 0 C1.875 1.125 1.875 1.125 3 3 C3.36528977 6.4093712 3.6140629 8.88023824 1.9375 11.9375 C-1.1652833 13.63902633 -3.53769185 13.42519574 -7 13 C-9.5 11.4375 -9.5 11.4375 -11 9 C-11 5.18846501 -10.80074051 2.94902579 -8.3125 0 C-5.12832007 -1.37694267 -3.29075199 -0.980224 0 0 Z " fill="#62BC81" transform="translate(417,386)"/>
<path d="M0 0 C3 0.5625 3 0.5625 5.375 2.1875 C7.46379841 5.24035921 7.54068562 6.93218224 7 10.5625 C5.45377937 12.92252096 4.2680138 13.46375807 1.625 14.4375 C-1.90285284 14.60549299 -3.33492902 13.85742223 -6 11.5625 C-7.0625 8.6875 -7.0625 8.6875 -7 5.5625 C-5.05716059 1.98767549 -4.03959602 0.75742425 0 0 Z " fill="#C8393F" transform="translate(413,235.4375)"/>
<path d="M0 0 C5.61 0 11.22 0 17 0 C17 2.31 17 4.62 17 7 C11.39 7 5.78 7 0 7 C0 4.69 0 2.38 0 0 Z " fill="#F1F2F4" transform="translate(152,64)"/>
<path d="M0 0 C0.99 0.103125 1.98 0.20625 3 0.3125 C5 3.3125 5 3.3125 4.625 6.5 C4.41875 7.428125 4.2125 8.35625 4 9.3125 C0.625 9.9375 0.625 9.9375 -3 10.3125 C-5 8.3125 -5 8.3125 -5.25 5.3125 C-4.90578549 1.18192588 -4.11441953 0.42858537 0 0 Z " fill="#EEEFF0" transform="translate(663,74.6875)"/>
<path d="M0 0 C0.99 0.103125 1.98 0.20625 3 0.3125 C5 3.3125 5 3.3125 4.75 5.875 C4 8.3125 4 8.3125 2 10.3125 C-3.56818182 9.74431818 -3.56818182 9.74431818 -5 8.3125 C-5.1875 5.375 -5.1875 5.375 -5 2.3125 C-3 0.3125 -3 0.3125 0 0 Z " fill="#F1F1F3" transform="translate(663,52.6875)"/>
<path d="M0 0 C0.31424507 3.45669582 0.37956836 5.39901677 -1.5 8.375 C-4.37218666 10.24192133 -6.60741061 10.62465371 -10.02734375 10.46484375 C-13.37259049 9.67655788 -14.98102765 7.64990121 -17 5 C-17 4.34 -17 3.68 -17 3 C-15.948125 3.495 -15.948125 3.495 -14.875 4 C-11.73996884 5.09044562 -9.29436818 5.15322643 -6 5 C-6 4.34 -6 3.68 -6 3 C-1.5 0 -1.5 0 0 0 Z " fill="#1F2B34" transform="translate(306,151)"/>
<path d="M0 0 C1.8871875 0.061875 1.8871875 0.061875 3.8125 0.125 C3.8125 2.105 3.8125 4.085 3.8125 6.125 C0.41785554 8.21401197 -2.23591529 8.46861606 -6.1875 8.125 C-6.8475 7.465 -7.5075 6.805 -8.1875 6.125 C-8 4.125 -8 4.125 -7.1875 2.125 C-4.09861478 0.06574319 -3.47814073 -0.1140374 0 0 Z " fill="#232E37" transform="translate(417.1875,70.875)"/>
<path d="M0 0 C1.8871875 0.061875 1.8871875 0.061875 3.8125 0.125 C4 3 4 3 3.8125 6.125 C0.15596173 8.56269218 -1.87750101 8.36444439 -6.1875 8.125 C-7.1875 7.125 -7.1875 7.125 -7.4375 4.6875 C-7.355 3.841875 -7.2725 2.99625 -7.1875 2.125 C-4.09861478 0.06574319 -3.47814073 -0.1140374 0 0 Z " fill="#212C35" transform="translate(340.1875,70.875)"/>
<path d="M0 0 C3.125 0.375 3.125 0.375 6 1 C6.33 3.31 6.66 5.62 7 8 C4 10 4 10 1.4375 9.75 C-1 9 -1 9 -3 7 C-2.67028521 3.70285207 -2.3773161 2.3773161 0 0 Z " fill="#EBECEE" transform="translate(578,39)"/>
<path d="M0 0 C2.5 0.25 2.5 0.25 4.5 2.25 C4.75 5.25 4.75 5.25 4.5 8.25 C2.5 10.25 2.5 10.25 0 10.5 C-2.5 10.25 -2.5 10.25 -4.5 8.25 C-4.75 5.25 -4.75 5.25 -4.5 2.25 C-2.5 0.25 -2.5 0.25 0 0 Z " fill="#EDEEF0" transform="translate(71.5,38.75)"/>
<path d="M0 0 C8.57142857 0.85714286 8.57142857 0.85714286 12 3 C11.125 6.875 11.125 6.875 10 8 C6.625 8.375 6.625 8.375 3 8 C0.61835808 5.15739513 0 3.71594733 0 0 Z " fill="#1F2A34" transform="translate(364,71)"/>
<path d="M0 0 C1.8871875 0.061875 1.8871875 0.061875 3.8125 0.125 C3.9375 2.5 3.9375 2.5 3.8125 5.125 C1.8125 7.125 1.8125 7.125 -0.1328125 7.3203125 C-2.15104167 7.25520833 -4.16927083 7.19010417 -6.1875 7.125 C-6.5175 5.475 -6.8475 3.825 -7.1875 2.125 C-4.09861478 0.06574319 -3.47814073 -0.1140374 0 0 Z " fill="#1E2932" transform="translate(499.1875,141.875)"/>
<path d="M0 0 C3 0.125 3 0.125 4 1.125 C4.1875 4.0625 4.1875 4.0625 4 7.125 C3.34 7.785 2.68 8.445 2 9.125 C-1.29714793 8.79528521 -2.6226839 8.5023161 -5 6.125 C-4.27477017 0.17811542 -4.27477017 0.17811542 0 0 Z " fill="#EDEEEF" transform="translate(360,111.875)"/>
<path d="M0 0 C0.94875 0.04125 1.8975 0.0825 2.875 0.125 C3.205 2.435 3.535 4.745 3.875 7.125 C0.875 9.125 0.875 9.125 -1.75 8.8125 C-4.125 8.125 -4.125 8.125 -5.125 7.125 C-5.3125 4.6875 -5.3125 4.6875 -5.125 2.125 C-3.125 0.125 -3.125 0.125 0 0 Z " fill="#EEEFF0" transform="translate(135.125,111.875)"/>
<path d="M0 0 C2.5 0.25 2.5 0.25 4.5 2.25 C4.125 5.375 4.125 5.375 3.5 8.25 C1.1875 8.875 1.1875 8.875 -1.5 9.25 C-2.49 8.59 -3.48 7.93 -4.5 7.25 C-4.8125 4.75 -4.8125 4.75 -4.5 2.25 C-2.5 0.25 -2.5 0.25 0 0 Z " fill="#F2F2F4" transform="translate(183.5,111.75)"/>
<path d="M0 0 C3.5625 0.3125 3.5625 0.3125 5.5 1.625 C6.5625 3.3125 6.5625 3.3125 6.5625 6.3125 C2.2725 6.3125 -2.0175 6.3125 -6.4375 6.3125 C-4.97238372 0.45203488 -4.97238372 0.45203488 0 0 Z " fill="#1A262F" transform="translate(499.4375,58.6875)"/>
<path d="M0 0 C3.625 0.25 3.625 0.25 5.5625 1.5625 C6.625 3.25 6.625 3.25 6.625 6.25 C2.335 6.25 -1.955 6.25 -6.375 6.25 C-3.99332061 0.29580153 -3.99332061 0.29580153 0 0 Z " fill="#19252E" transform="translate(132.375,58.75)"/>
<path d="M0 0 C1.875 1.3125 1.875 1.3125 3 3 C3 3.99 3 4.98 3 6 C-0.96 6 -4.92 6 -9 6 C-8.67 4.35 -8.34 2.7 -8 1 C-5.20129973 -0.39935013 -3.09501208 -0.25265405 0 0 Z " fill="#1C2831" transform="translate(641,59)"/>
<path d="M0 0 C3.0625 0.25 3.0625 0.25 6.0625 2.25 C6.0625 3.57 6.0625 4.89 6.0625 6.25 C2.1025 6.25 -1.8575 6.25 -5.9375 6.25 C-4.4701087 0.38043478 -4.4701087 0.38043478 0 0 Z " fill="#15212A" transform="translate(291.9375,58.75)"/>
<path d="M0 0 C3.625 0.375 3.625 0.375 7 1 C7.33 2.65 7.66 4.3 8 6 C4.37 6 0.74 6 -3 6 C-2 2 -2 2 0 0 Z " fill="#1D2730" transform="translate(559,130)"/>
<path d="M0 0 C2.875 -0.125 2.875 -0.125 6 0 C8 2 8 2 8.125 4.625 C8.08375 5.40875 8.0425 6.1925 8 7 C1.9453125 7.1953125 1.9453125 7.1953125 0 7 C-0.66 6.34 -1.32 5.68 -2 5 C-1.67 4.360625 -1.34 3.72125 -1 3.0625 C0.07271225 1.23205433 0.07271225 1.23205433 0 0 Z " fill="#242F37" transform="translate(336,59)"/>
<path d="M0 0 C0.33 0 0.66 0 1 0 C1.061875 0.94875 1.12375 1.8975 1.1875 2.875 C1.455625 3.90625 1.72375 4.9375 2 6 C4.46255685 7.45291273 4.46255685 7.45291273 7 8 C6.0409375 8.2165625 6.0409375 8.2165625 5.0625 8.4375 C3.02454854 8.81007181 3.02454854 8.81007181 2 10 C4.64 10 7.28 10 10 10 C10 10.33 10 10.66 10 11 C4.06 11.495 4.06 11.495 -2 12 C-2 8.7 -2 5.4 -2 2 C-1.34 2 -0.68 2 0 2 C0 1.34 0 0.68 0 0 Z " fill="#121E28" transform="translate(129,113)"/>
<path d="M0 0 C5.45454545 -0.36363636 5.45454545 -0.36363636 7.875 1.25 C9 3 9 3 9 7 C6.36 7 3.72 7 1 7 C0.67 6.01 0.34 5.02 0 4 C0.66 3.34 1.32 2.68 2 2 C1.34 1.34 0.68 0.68 0 0 Z " fill="#2C363F" transform="translate(412,59)"/>
<path d="M0 0 C3.96 0.33 7.92 0.66 12 1 C11.67 1.99 11.34 2.98 11 4 C9.35 4 7.7 4 6 4 C6.33 5.32 6.66 6.64 7 8 C4.13792848 6.71700242 1.9754912 5.469364 0 3 C0 2.01 0 1.02 0 0 Z " fill="#323C44" transform="translate(324,153)"/>
<path d="M0 0 C0.33 0 0.66 0 1 0 C1 7.92 1 15.84 1 24 C0.67 24 0.34 24 0 24 C-0.33 18.72 -0.66 13.44 -1 8 C-1.33 8.66 -1.66 9.32 -2 10 C-2.66 10 -3.32 10 -4 10 C-2.8905928 6.51329166 -1.73662334 3.22515763 0 0 Z " fill="#222D37" transform="translate(114,131)"/>
<path d="M0 0 C3.375 -0.125 3.375 -0.125 7 0 C9 2 9 2 9 6 C7.35 6 5.7 6 4 6 C4.66 4.68 5.32 3.36 6 2 C4.02 2.33 2.04 2.66 0 3 C0 2.01 0 1.02 0 0 Z " fill="#202B34" transform="translate(494,131)"/>
<path d="M0 0 C0 0.66 0 1.32 0 2 C-1.65 2.66 -3.3 3.32 -5 4 C-2.03 4.33 0.94 4.66 4 5 C4 5.33 4 5.66 4 6 C0.04 6 -3.92 6 -8 6 C-7.67 4.35 -7.34 2.7 -7 1 C-4.53721199 -0.231394 -2.7204945 -0.07159196 0 0 Z " fill="#101922" transform="translate(640,59)"/>
<path d="M0 0 C0.33 0 0.66 0 1 0 C1.33 3.63 1.66 7.26 2 11 C0.33333333 11 -1.33333333 11 -3 11 C-3 8.36 -3 5.72 -3 3 C-2.34 3.66 -1.68 4.32 -1 5 C-0.67 3.35 -0.34 1.7 0 0 Z " fill="#101C25" transform="translate(483,65)"/>
<path d="M0 0 C1.47726562 0.30550781 1.47726562 0.30550781 2.984375 0.6171875 C4.10585938 0.86855469 4.10585938 0.86855469 5.25 1.125 C5.25 1.455 5.25 1.785 5.25 2.125 C3.81274129 2.29373478 2.37518162 2.45990737 0.9375 2.625 C0.13699219 2.7178125 -0.66351563 2.810625 -1.48828125 2.90625 C-5.29260409 3.27419832 -6.44577317 3.32781788 -9.75 1.125 C-6.21145836 -1.14977677 -4.04052627 -0.86582706 0 0 Z " fill="#3D454C" transform="translate(349.75,82.875)"/>
<path d="M0 0 C4.62 0 9.24 0 14 0 C13.01 0.495 13.01 0.495 12 1 C11.67 1.99 11.34 2.98 11 4 C10.34 4 9.68 4 9 4 C9 3.01 9 2.02 9 1 C6.03 1 3.06 1 0 1 C0 0.67 0 0.34 0 0 Z " fill="#212D37" transform="translate(561,143)"/>
<path d="M0 0 C0.99 0 1.98 0 3 0 C2.649375 0.61875 2.29875 1.2375 1.9375 1.875 C1.4734375 2.926875 1.4734375 2.926875 1 4 C1.33 4.66 1.66 5.32 2 6 C0.68 6 -0.64 6 -2 6 C-2 5.34 -2 4.68 -2 4 C-3.32 3.67 -4.64 3.34 -6 3 C-4.02 3 -2.04 3 0 3 C0 2.01 0 1.02 0 0 Z " fill="#131D26" transform="translate(334,60)"/>
<path d="M0 0 C3.125 0.375 3.125 0.375 6 1 C6 1.99 6 2.98 6 4 C3.36 3.34 0.72 2.68 -2 2 C-1.34 1.34 -0.68 0.68 0 0 Z " fill="#323A41" transform="translate(96,59)"/>
<path d="M0 0 C1.65 0 3.3 0 5 0 C4.01 0.495 4.01 0.495 3 1 C3.33 2.32 3.66 3.64 4 5 C1.525 4.01 1.525 4.01 -1 3 C-0.67 2.01 -0.34 1.02 0 0 Z " fill="#222D37" transform="translate(376,63)"/>
<path d="M0 0 C2.375 -0.1875 2.375 -0.1875 5 0 C5.66 0.99 6.32 1.98 7 3 C6.34 3.66 5.68 4.32 5 5 C5 4.34 5 3.68 5 3 C3.35 3 1.7 3 0 3 C0 2.01 0 1.02 0 0 Z " fill="#3F484F" transform="translate(528,130)"/>
<path d="M0 0 C1.2065625 0.0309375 1.2065625 0.0309375 2.4375 0.0625 C2.4375 0.7225 2.4375 1.3825 2.4375 2.0625 C3.0975 2.3925 3.7575 2.7225 4.4375 3.0625 C1.5625 3.1875 1.5625 3.1875 -1.5625 3.0625 C-2.2225 2.4025 -2.8825 1.7425 -3.5625 1.0625 C-2.5625 0.0625 -2.5625 0.0625 0 0 Z " fill="#15212B" transform="translate(560.5625,130.9375)"/>
<path d="M0 0 C0.99 0 1.98 0 3 0 C2.34 2.64 1.68 5.28 1 8 C-0.42944945 5.64561267 -1.08661261 4.51967567 -0.625 1.75 C-0.41875 1.1725 -0.2125 0.595 0 0 Z " fill="#27313A" transform="translate(556,67)"/>
<path d="M0 0 C1.32 0.33 2.64 0.66 4 1 C4 1.99 4 2.98 4 4 C2.02 4 0.04 4 -2 4 C-1.34 2.68 -0.68 1.36 0 0 Z " fill="#1A242D" transform="translate(417,61)"/>
</svg>
